<svg width="56" height="55" viewBox="0 0 56 55" fill="none" xmlns="http://www.w3.org/2000/svg">
<g filter="url(#filter0_dd_37_2182)">
<rect x="2" y="2" width="52" height="51" rx="8" fill="url(#paint0_linear_37_2182)"/>
<rect x="2.5" y="2.5" width="51" height="50" rx="7.5" stroke="url(#paint1_linear_37_2182)"/>
<path d="M33.8594 24.6719C33.8594 21.441 31.2309 18.8125 28 18.8125C24.7691 18.8125 22.1406 21.441 22.1406 24.6719C22.1406 27.9027 24.7691 30.5312 28 30.5312C31.2309 30.5312 33.8594 27.9027 33.8594 24.6719ZM28 20.2188C30.2162 20.2188 32.0593 21.8462 32.3974 23.9688H30.7419L29.5404 21.9663C29.403 21.7373 29.1479 21.6055 28.8813 21.6272C28.615 21.6486 28.3839 21.819 28.2846 22.067L26.936 25.4384L26.2591 24.3101C26.1321 24.0984 25.9032 23.9688 25.6562 23.9688H23.6026C23.9407 21.8462 25.7838 20.2188 28 20.2188ZM23.6026 25.375H25.2581L26.4596 27.3774C26.5873 27.5903 26.8168 27.7188 27.0624 27.7188C27.081 27.7188 27.0998 27.718 27.1187 27.7165C27.385 27.6952 27.6161 27.5248 27.7153 27.2768L29.0639 23.9054L29.7408 25.0336C29.8679 25.2454 30.0968 25.375 30.3438 25.375H32.3974C32.0593 27.4975 30.2162 29.125 28 29.125C25.7838 29.125 23.9407 27.4975 23.6026 25.375Z" fill="#CBACF9"/>
<path d="M33.3229 34.8084C32.5375 34.4715 31.5293 34.2153 30.4127 34.064L31.1751 32.7338C32.7345 32.1203 34.0717 31.0788 35.0541 29.7097C36.1124 28.2347 36.6719 26.4927 36.6719 24.6719C36.6719 19.8902 32.7817 16 28 16C23.2183 16 19.3281 19.8902 19.3281 24.6719C19.3281 26.4927 19.8876 28.2347 20.9459 29.7097C21.9284 31.0788 23.2655 32.1203 24.825 32.7338L25.5874 34.0641C24.4708 34.2155 23.4625 34.4715 22.6771 34.8084C21.0714 35.4971 20.7344 36.3548 20.7344 36.9531C20.7344 37.6221 21.1488 38.5675 23.1231 39.2725C24.4366 39.7417 26.1685 40 28 40C29.8315 40 31.5634 39.7417 32.8769 39.2725C34.8512 38.5675 35.2656 37.6221 35.2656 36.9531C35.2656 36.3548 34.9286 35.4971 33.3229 34.8084ZM20.7344 24.6719C20.7344 20.6656 23.9937 17.4062 28 17.4062C32.0063 17.4062 35.2656 20.6656 35.2656 24.6719C35.2656 27.7236 33.3316 30.4689 30.4529 31.5032C30.2957 31.5596 30.1637 31.6702 30.0807 31.8152L28 35.4454L25.9193 31.8153C25.8362 31.6703 25.7043 31.5597 25.5471 31.5032C22.6684 30.4689 20.7344 27.7236 20.7344 24.6719ZM32.4039 37.9482C31.2384 38.3645 29.6744 38.5938 28 38.5938C26.3256 38.5938 24.7616 38.3645 23.5961 37.9482C22.5283 37.5669 22.1406 37.1442 22.1406 36.9531C22.1406 36.8201 22.3686 36.4708 23.2315 36.1007C24.0322 35.7572 25.1268 35.5093 26.3481 35.3911L27.39 37.209C27.5153 37.4276 27.748 37.5625 28 37.5625C28.252 37.5625 28.4847 37.4276 28.61 37.209L29.652 35.3912C30.8733 35.5094 31.9678 35.7572 32.7686 36.1007C33.6314 36.4708 33.8594 36.8201 33.8594 36.9531C33.8594 37.1442 33.4717 37.5669 32.4039 37.9482Z" fill="#CBACF9"/>
</g>
<defs>
<filter id="filter0_dd_37_2182" x="0" y="0" width="56" height="55" filterUnits="userSpaceOnUse" color-interpolation-filters="sRGB">
<feFlood flood-opacity="0" result="BackgroundImageFix"/>
<feColorMatrix in="SourceAlpha" type="matrix" values="0 0 0 0 0 0 0 0 0 0 0 0 0 0 0 0 0 0 127 0" result="hardAlpha"/>
<feOffset/>
<feGaussianBlur stdDeviation="0.5"/>
<feColorMatrix type="matrix" values="0 0 0 0 0.0901961 0 0 0 0 0.101961 0 0 0 0 0.121569 0 0 0 0.07 0"/>
<feBlend mode="normal" in2="BackgroundImageFix" result="effect1_dropShadow_37_2182"/>
<feColorMatrix in="SourceAlpha" type="matrix" values="0 0 0 0 0 0 0 0 0 0 0 0 0 0 0 0 0 0 127 0" result="hardAlpha"/>
<feOffset/>
<feGaussianBlur stdDeviation="1"/>
<feColorMatrix type="matrix" values="0 0 0 0 0.0901961 0 0 0 0 0.101961 0 0 0 0 0.121569 0 0 0 0.12 0"/>
<feBlend mode="normal" in2="effect1_dropShadow_37_2182" result="effect2_dropShadow_37_2182"/>
<feBlend mode="normal" in="SourceGraphic" in2="effect2_dropShadow_37_2182" result="shape"/>
</filter>
<linearGradient id="paint0_linear_37_2182" x1="3.76543" y1="24" x2="54" y2="24" gradientUnits="userSpaceOnUse">
<stop stop-color="#161A31"/>
<stop offset="1" stop-color="#06091F"/>
</linearGradient>
<linearGradient id="paint1_linear_37_2182" x1="28" y1="2" x2="28" y2="53" gradientUnits="userSpaceOnUse">
<stop stop-color="#6971A2" stop-opacity="0.4"/>
<stop offset="1" stop-color="#272A3C" stop-opacity="0.5"/>
</linearGradient>
</defs>
</svg>
