<svg width="77" height="77" viewBox="0 0 77 77" fill="none" xmlns="http://www.w3.org/2000/svg">
<path d="M28.875 57.75V16.0417L67.375 9.625V51.3333" stroke="#CBACF9" stroke-width="3.8138" stroke-linecap="round" stroke-linejoin="round"/>
<path d="M19.25 67.375C24.5657 67.375 28.875 63.0657 28.875 57.75C28.875 52.4343 24.5657 48.125 19.25 48.125C13.9343 48.125 9.625 52.4343 9.625 57.75C9.625 63.0657 13.9343 67.375 19.25 67.375Z" stroke="#CBACF9" stroke-width="3.8138" stroke-linecap="round" stroke-linejoin="round"/>
<path d="M57.75 60.9583C63.0657 60.9583 67.375 56.649 67.375 51.3333C67.375 46.0175 63.0657 41.7083 57.75 41.7083C52.4343 41.7083 48.125 46.0175 48.125 51.3333C48.125 56.649 52.4343 60.9583 57.75 60.9583Z" stroke="#CBACF9" stroke-width="3.8138" stroke-linecap="round" stroke-linejoin="round"/>
</svg>
