<svg width="92" height="92" viewBox="0 0 92 92" fill="none" xmlns="http://www.w3.org/2000/svg">
<circle cx="46" cy="46" r="46" fill="url(#paint0_linear_37_2698)"/>
<g clip-path="url(#clip0_37_2698)">
<path d="M67.2506 42.1458H54.5394L63.518 33.16C62.107 31.1754 60.3744 29.4404 58.3918 28.0266L49.4024 37.0069V24.2994C48.2055 24.1036 46.995 24.0035 45.7823 24H45.7641C44.5302 24 43.3217 24.1107 42.144 24.2994V37.0106L33.1618 28.0302C31.1735 29.4389 29.4374 31.1732 28.0266 33.16L37.0069 42.1458H24.2994C24.2994 42.1458 24 44.5338 24 45.7659V45.7823C24 47.0162 24.1107 48.2283 24.2994 49.4024H37.0106L28.0302 58.3882C29.4403 60.3753 31.1744 62.1112 33.16 63.5234L42.1458 54.5413V67.2506C43.3401 67.4471 44.5483 67.5472 45.7587 67.55H45.7895C47.0216 67.55 48.2283 67.4411 49.4024 67.2506V54.5413L58.3882 63.5234C59.3826 62.843 60.3116 62.05 61.1627 61.1826H61.1717C62.03 60.3388 62.8158 59.4116 63.5234 58.4045L54.5413 49.4241H67.2506C67.4411 48.2537 67.55 47.0579 67.55 45.8313V45.775C67.55 44.5447 67.4411 43.338 67.2506 42.164V42.1458ZM51.2188 45.7823C51.2188 47.4027 50.9193 48.9505 50.3822 50.3822C48.912 50.9365 47.3535 51.2199 45.7823 51.2188H45.7659C44.1954 51.2188 42.6377 50.9354 41.1678 50.3822C40.6138 48.9119 40.3304 47.3535 40.3312 45.7823V45.7659C40.3312 44.1455 40.6288 42.5995 41.1678 41.1678C42.6375 40.6139 44.1953 40.3305 45.7659 40.3312H45.7823C47.4027 40.3312 48.9541 40.6288 50.3822 41.1696C50.9212 42.5995 51.2188 44.1473 51.2188 45.7696V45.7823Z" fill="#F34702"/>
</g>
<defs>
<linearGradient id="paint0_linear_37_2698" x1="46" y1="0" x2="46" y2="92" gradientUnits="userSpaceOnUse">
<stop stop-color="#6971A2"/>
<stop offset="1" stop-color="#272A3C" stop-opacity="0.5"/>
</linearGradient>
<clipPath id="clip0_37_2698">
<rect width="43.55" height="43.55" fill="white" transform="translate(24 24)"/>
</clipPath>
</defs>
</svg>
