<svg width="92" height="92" viewBox="0 0 92 92" fill="none" xmlns="http://www.w3.org/2000/svg">
<circle cx="46" cy="46" r="46" fill="url(#paint0_linear_37_2705)"/>
<g clip-path="url(#clip0_37_2705)">
<path d="M32.4314 43.7438C32.3553 43.611 32.2642 43.4872 32.1601 43.3749C31.9585 43.1588 31.7157 42.9852 31.4461 42.8644C31.1706 42.738 30.871 42.6727 30.5678 42.6728C30.1331 42.663 29.7052 42.7814 29.3373 43.0131C28.9627 43.2679 28.6762 43.6325 28.5174 44.0568C28.3069 44.6124 28.2075 45.2039 28.2246 45.7978V46.1834C28.2075 46.7767 28.3027 47.3679 28.5055 47.9257C28.6575 48.3451 28.9362 48.7069 29.3028 48.961C29.6707 49.1924 30.0989 49.3096 30.5333 49.2978C30.8384 49.2992 31.1403 49.2356 31.4187 49.111C31.6933 48.9896 31.9418 48.8162 32.1506 48.6004C32.2536 48.4935 32.3465 48.3771 32.4278 48.253V49.1216H35.1649V42.8489H32.4278L32.4314 43.7438ZM32.4993 46.1322C32.5049 46.3984 32.4773 46.6643 32.4171 46.9237C32.3817 47.0982 32.2994 47.2599 32.1791 47.3913C32.1265 47.4421 32.0642 47.4819 31.9959 47.5082C31.9277 47.5346 31.8548 47.547 31.7817 47.5448C31.71 47.5468 31.6387 47.5342 31.572 47.5078C31.5053 47.4814 31.4446 47.4418 31.3937 47.3913C31.2725 47.2615 31.1901 47.1003 31.1557 46.926C31.0994 46.6654 31.0738 46.3989 31.0795 46.1322V45.7978C31.0736 45.5334 31.1005 45.2692 31.1593 45.0112C31.1929 44.8407 31.2732 44.6829 31.3913 44.5554C31.4425 44.5064 31.503 44.4681 31.5693 44.4428C31.6355 44.4174 31.7061 44.4055 31.7769 44.4079C31.9237 44.403 32.0664 44.456 32.1744 44.5554C32.2949 44.682 32.3774 44.84 32.4124 45.0112C32.4727 45.2689 32.5003 45.5332 32.4945 45.7978L32.4993 46.1322Z" fill="white"/>
<path d="M41.7465 42.9243C41.4426 42.7521 41.0972 42.6669 40.7481 42.678C40.4081 42.673 40.0712 42.7416 39.7604 42.8791C39.4764 43.0064 39.2216 43.1907 39.0118 43.4205C38.8716 43.5766 38.7534 43.7512 38.6607 43.9394V42.8541H36.0117V49.1268H38.7405V45.3663C38.7353 45.2249 38.7634 45.0842 38.8225 44.9557C38.8679 44.856 38.9432 44.7728 39.0379 44.7177C39.1272 44.6686 39.2276 44.6431 39.3295 44.6439C39.4002 44.64 39.4709 44.651 39.537 44.6765C39.603 44.7019 39.6629 44.7411 39.7127 44.7914C39.8183 44.9264 39.8681 45.0968 39.8519 45.2674V49.1292H42.5795V44.9152C42.5924 44.4911 42.5203 44.0687 42.3677 43.6728C42.2449 43.3646 42.0274 43.1033 41.7465 42.9267" fill="white"/>
<path d="M54.1312 46.654C54.1416 46.9159 54.0754 47.1752 53.9409 47.4001C53.8851 47.4813 53.8099 47.547 53.7223 47.5911C53.6344 47.6352 53.5368 47.6563 53.4386 47.6524C53.2852 47.6591 53.135 47.6063 53.0197 47.5049C52.8947 47.3688 52.812 47.1992 52.7817 47.017C52.7221 46.7125 52.6958 46.4025 52.7031 46.0923V45.8031C52.7031 45.2664 52.7639 44.8844 52.8876 44.6583C52.9399 44.5518 53.0221 44.4628 53.1242 44.4023C53.2263 44.3419 53.3438 44.3125 53.4624 44.3179C53.5579 44.3115 53.6535 44.33 53.7397 44.3718C53.8258 44.4135 53.8998 44.477 53.9537 44.5559C54.0746 44.7691 54.1323 45.0121 54.1203 45.2568V45.2902H56.9169C56.9053 44.7848 56.7433 44.2943 56.4519 43.8812C56.1462 43.4727 55.7285 43.1615 55.2499 42.9851C54.6605 42.7667 54.0351 42.6617 53.4064 42.6757C52.7761 42.6646 52.1503 42.7833 51.5678 43.0244C51.046 43.2447 50.6033 43.6182 50.2981 44.0954C49.9879 44.5714 49.8328 45.1688 49.8328 45.8876V46.0637C49.8328 46.7778 49.9831 47.3779 50.2838 47.8643C50.5811 48.3436 51.0186 48.7199 51.5369 48.9424C52.1265 49.1899 52.7613 49.3115 53.4005 49.2995C54.0204 49.3108 54.6373 49.2062 55.2189 48.9912C55.7122 48.8107 56.1439 48.4937 56.4635 48.0773C56.7732 47.6548 56.9437 47.1466 56.9514 46.623H54.1312V46.654Z" fill="white"/>
<path d="M63.2217 42.9236C62.9183 42.7495 62.573 42.6626 62.2231 42.6725C61.8836 42.6675 61.5473 42.7361 61.2369 42.8737C60.9525 43.0004 60.6975 43.1848 60.4882 43.4152C60.3852 43.5296 60.2941 43.6539 60.2158 43.7864V40.9172H57.4871V49.1214H60.2158V45.3608C60.2104 45.2194 60.2387 45.0788 60.2976 44.9503C60.3437 44.8508 60.4189 44.7678 60.5131 44.7123C60.603 44.6629 60.7037 44.6375 60.806 44.6385C60.8765 44.6346 60.9474 44.6458 61.0133 44.6712C61.0792 44.6966 61.1392 44.7358 61.1892 44.786C61.2939 44.9215 61.3431 45.0916 61.3272 45.262V49.1238H64.056V44.9098C64.0684 44.4856 63.9959 44.0632 63.8428 43.6674C63.7208 43.3587 63.503 43.0972 63.2217 42.9213" fill="white"/>
<path d="M68.8871 43.7438C68.8112 43.611 68.7201 43.4872 68.6159 43.3749C68.4144 43.1588 68.1718 42.9852 67.9021 42.8644C67.6282 42.7406 67.3313 42.6769 67.031 42.6776C66.5963 42.6678 66.1681 42.7861 65.8003 43.0179C65.426 43.273 65.1396 43.6375 64.9804 44.0616C64.77 44.6172 64.6704 45.2087 64.6878 45.8026V46.1882C64.6704 46.7814 64.7657 47.3726 64.9684 47.9304C65.1207 48.3498 65.3993 48.7116 65.7658 48.9657C66.1336 49.1972 66.5618 49.3144 66.9965 49.3025C67.3015 49.304 67.6034 49.2403 67.8816 49.1157C68.1563 48.9943 68.4047 48.8209 68.6136 48.6052C68.7167 48.4983 68.8097 48.3819 68.891 48.2577V49.1264H71.6279V42.8537H68.891L68.8871 43.7438ZM68.9565 46.1322C68.9615 46.3985 68.9337 46.6644 68.8732 46.9237C68.8376 47.0983 68.7554 47.2598 68.6349 47.3913C68.5822 47.4421 68.5202 47.4818 68.452 47.5082C68.3834 47.5346 68.3106 47.5471 68.2377 47.5448C68.166 47.5468 68.0947 47.5342 68.0277 47.5078C67.961 47.4814 67.9006 47.4418 67.8494 47.3913C67.7285 47.2614 67.646 47.1003 67.6115 46.9261C67.5553 46.6653 67.5297 46.3989 67.5356 46.1322V45.7978C67.5294 45.5333 67.5565 45.2691 67.615 45.0112C67.6487 44.8407 67.7293 44.6829 67.8471 44.5554C67.8983 44.5064 67.9591 44.4681 68.025 44.4428C68.0912 44.4174 68.1618 44.4056 68.2327 44.4079C68.3795 44.403 68.5221 44.456 68.6302 44.5554C68.7508 44.682 68.8333 44.84 68.8682 45.0112C68.929 45.2689 68.9573 45.5331 68.9515 45.7978L68.9565 46.1322Z" fill="white"/>
<path d="M77.0001 44.5329V42.8538H75.8314V40.9224H73.1038V42.8538H72.1448V44.5329H73.0969V47.27C73.0783 47.6722 73.1844 48.0703 73.4003 48.4101C73.6002 48.6993 73.8858 48.9186 74.2167 49.0373C74.5969 49.1696 74.9972 49.2336 75.3994 49.2265C75.7013 49.23 76.0027 49.2005 76.298 49.1384C76.5402 49.0872 76.7754 49.0073 76.999 48.9004V47.42C76.8107 47.483 76.6134 47.5155 76.4146 47.5164C76.2608 47.5275 76.1081 47.4855 75.9814 47.3974C75.8803 47.3165 75.8303 47.1737 75.8303 46.969V44.5306L77.0001 44.5329Z" fill="white"/>
<path d="M25.808 40.0024H25.7199C23.1149 40.0024 21.8487 43.8998 21.8487 43.8998V40.9092H15V49.1288H17.7371V43.6487H19.1973V49.1288H22.1343C22.1343 49.1288 23.6433 42.6241 25.0559 43.1108C26.0079 43.4678 23.3231 49.1229 23.3231 49.1229H27.2015C27.2015 49.1229 27.7394 45.4397 27.7477 44.1652C27.8667 42.0005 27.5252 40 25.8056 40" fill="white"/>
<path d="M45.0295 49.4915C45.0335 49.3836 45.0016 49.2773 44.939 49.1893C44.8714 49.1038 44.7792 49.0412 44.6749 49.0096C44.5378 48.9671 44.3947 48.9471 44.2512 48.9501L42.7922 42.8535H45.6328L46.4838 48.0826H46.2243L47.1144 42.8535H49.898L48.5175 48.9501C48.365 48.9453 48.2126 48.9654 48.0665 49.0096C47.9675 49.0389 47.8812 49.1005 47.8213 49.1846C47.7666 49.2773 47.7401 49.384 47.7452 49.4915V50.9339H45.0295V49.4915Z" fill="white"/>
</g>
<defs>
<linearGradient id="paint0_linear_37_2705" x1="46" y1="0" x2="46" y2="92" gradientUnits="userSpaceOnUse">
<stop stop-color="#6971A2"/>
<stop offset="1" stop-color="#272A3C" stop-opacity="0.5"/>
</linearGradient>
<clipPath id="clip0_37_2705">
<rect width="62" height="11.2375" fill="white" transform="translate(15 40)"/>
</clipPath>
</defs>
</svg>
