<svg width="92" height="92" viewBox="0 0 92 92" fill="none" xmlns="http://www.w3.org/2000/svg">
<circle cx="46" cy="46" r="46" fill="url(#paint0_linear_37_2716)"/>
<g clip-path="url(#clip0_37_2716)">
<path d="M27.9086 44.5709V50.5184C27.9086 50.8861 27.8478 51.2402 27.7429 51.5714C27.2916 52.977 25.9757 53.9997 24.4273 53.9997H15V44.5709C15 42.6532 16.5636 41.0896 18.4813 41.0896H24.4288C26.3449 41.0896 27.9086 42.6532 27.9086 44.5709Z" fill="#00A68B"/>
<path d="M24.5111 41.0529C24.5111 41.0681 24.5111 41.0833 24.5035 41.0985H23.6085C23.6009 41.0833 23.6009 41.0681 23.6009 41.0529C23.6009 39.8722 22.639 38.9027 21.4507 38.9027C20.2624 38.9027 19.3006 39.8646 19.3006 41.0529C19.3006 41.0681 19.3006 41.0833 19.3006 41.0985H18.4055C18.3979 41.0833 18.3979 41.0681 18.3979 41.0529C18.3979 39.3692 19.7655 38.0001 21.4507 38.0001C23.1359 38.0001 24.5111 39.3677 24.5111 41.0529Z" fill="#00A68B"/>
<path d="M19.3077 41.0819C19.3077 41.3296 19.104 41.5332 18.8563 41.5332C18.6087 41.5332 18.405 41.3296 18.405 41.0819H19.3077Z" fill="#00A68B"/>
<path d="M24.4959 41.0819C24.4959 41.3296 24.2923 41.5332 24.0446 41.5332C23.7969 41.5332 23.5933 41.3296 23.5933 41.0819H24.4959Z" fill="#00A68B"/>
<path d="M24.9397 48.1417C24.9397 50.0746 23.3685 51.6458 21.4357 51.6458C19.5028 51.6458 17.9331 50.0746 17.9331 48.1417" fill="white"/>
<path d="M32.2318 45.165C31.9841 45.165 31.7805 45.0829 31.6148 44.9249C31.4568 44.7593 31.3748 44.5572 31.3748 44.308C31.3748 44.0603 31.4568 43.8567 31.6148 43.691C31.7729 43.5254 31.9826 43.4509 32.2318 43.4509C32.481 43.4509 32.6831 43.533 32.8487 43.691C33.0068 43.8567 33.0888 44.0587 33.0888 44.308C33.0888 44.5556 33.0068 44.7593 32.8487 44.9249C32.6907 45.0829 32.4795 45.165 32.2318 45.165ZM31.5252 52.6685V45.9992H32.9536V52.6685H31.5252Z" fill="white"/>
<path d="M34.157 52.6683V45.999H35.4197L35.5246 47.172C35.7282 46.7587 36.0352 46.4351 36.4348 46.195C36.833 45.9549 37.2919 45.8409 37.8099 45.8409C38.6138 45.8409 39.2535 46.0886 39.7124 46.5931C40.1713 47.0976 40.4039 47.8407 40.4039 48.8405V52.6743H38.9907V48.991C38.9907 47.6978 38.4649 47.0581 37.4043 47.0581C36.8785 47.0581 36.4424 47.2465 36.0959 47.6219C35.7495 47.9972 35.5778 48.5397 35.5778 49.2386V52.6819H34.157V52.6683Z" fill="white"/>
<path d="M44.2679 52.6682C43.6146 52.6682 43.0949 52.5101 42.7119 52.1941C42.329 51.878 42.1331 51.3067 42.1331 50.4952V47.2023H40.9902V45.9989H42.1331V44.3076H43.5614V45.9989H45.441V47.1948H43.5614V50.4876C43.5614 50.8553 43.6358 51.1122 43.7939 51.2474C43.9519 51.3826 44.2224 51.4586 44.6054 51.4586H45.3726V52.6697L44.2679 52.6682Z" fill="white"/>
<path d="M49.8458 52.8342C49.1923 52.8342 48.6134 52.6913 48.1012 52.3981C47.5983 52.1048 47.1987 51.6991 46.9131 51.1794C46.6272 50.6612 46.4844 50.0519 46.4844 49.3681C46.4844 48.6691 46.6272 48.0522 46.9053 47.5264C47.191 47.0006 47.5815 46.5873 48.0861 46.294C48.589 46.0008 49.1832 45.8503 49.8534 45.8503C50.5067 45.8503 51.078 45.9932 51.5597 46.2864C52.0415 46.5797 52.4167 46.9627 52.6873 47.4519C52.9578 47.9336 53.0929 48.467 53.0929 49.0535C53.0929 49.1432 53.0929 49.242 53.0853 49.3392C53.0778 49.4441 53.0702 49.5565 53.0627 49.6857H47.8764C47.9219 50.3315 48.1316 50.8208 48.5161 51.1596C48.8991 51.4985 49.3351 51.6626 49.8395 51.6626C50.2454 51.6626 50.5841 51.573 50.8547 51.3845C51.1252 51.2037 51.3289 50.956 51.4639 50.6399H52.8924C52.7116 51.2645 52.3591 51.7902 51.8243 52.2112C51.297 52.623 50.6359 52.8342 49.8458 52.8342ZM49.8458 47.0067C49.3716 47.0067 48.9506 47.1495 48.583 47.4276C48.2151 47.7133 47.9888 48.1342 47.9144 48.698H51.6814C51.651 48.1798 51.4702 47.765 51.1328 47.4656C50.7787 47.1648 50.3578 47.0067 49.8458 47.0067Z" fill="white"/>
<path d="M54.5747 52.6687V45.9994H55.8526L55.9726 47.2621C56.2052 46.826 56.5288 46.4735 56.9497 46.2167C57.3631 45.9614 57.8675 45.8337 58.4602 45.8337V47.3229H58.0697C57.6792 47.3229 57.3251 47.3913 57.0166 47.5189C56.7081 47.6466 56.4604 47.8654 56.2796 48.1799C56.0988 48.4884 56.0015 48.9169 56.0015 49.4655V52.6687H54.5747Z" fill="white"/>
<path d="M61.9432 52.8343C61.3795 52.8343 60.913 52.737 60.5454 52.5486C60.1775 52.3602 59.9054 52.1125 59.7261 51.804C59.5453 51.4956 59.4558 51.1582 59.4558 50.789C59.4558 50.1432 59.7035 49.6311 60.2079 49.2558C60.7108 48.8804 61.4265 48.692 62.3581 48.692H64.1025V48.5719C64.1025 48.0538 63.9596 47.6617 63.6815 47.3989C63.3959 47.136 63.0358 47.0083 62.5844 47.0083C62.1939 47.0083 61.8474 47.1056 61.5542 47.294C61.261 47.49 61.0878 47.7681 61.0209 48.151H59.5926C59.6381 47.6693 59.8038 47.256 60.0817 46.9111C60.3674 46.5646 60.7216 46.3017 61.1577 46.1224C61.5937 45.9416 62.0679 45.8444 62.5859 45.8444C63.5191 45.8444 64.2393 46.0844 64.7515 46.5737C65.2619 47.063 65.5187 47.724 65.5187 48.5735V52.6702H64.1799L64.1573 51.5275C63.9687 51.8952 63.6984 52.2037 63.3383 52.4529C62.9963 52.7051 62.5221 52.8343 61.9432 52.8343ZM62.2289 51.6764C62.6118 51.6764 62.9355 51.5867 63.206 51.3983C63.4688 51.2175 63.68 50.9698 63.8229 50.6689C63.9735 50.3604 64.063 50.0292 64.101 49.6615H62.5145C61.9508 49.6615 61.5527 49.7587 61.3111 49.9547C61.0709 50.1508 60.957 50.3984 60.957 50.6917C60.957 51.0002 61.0694 51.2327 61.3035 51.4135C61.5223 51.5852 61.8308 51.6764 62.2289 51.6764Z" fill="white"/>
<path d="M66.7256 52.6687V42.9922H68.1539V48.7589L70.7099 45.9994H72.4163L69.5824 49.0218L72.8372 52.6687H71.0335L68.1539 49.2558V52.6687H66.7256Z" fill="white"/>
<path d="M76.7235 52.6682C76.0702 52.6682 75.5505 52.5101 75.1675 52.1941C74.7848 51.878 74.5887 51.3067 74.5887 50.4952V47.2023H73.446V45.9989H74.5887V44.3076H76.017V45.9989H77.8968V47.1948H76.017V50.4876C76.017 50.8553 76.0916 51.1122 76.2495 51.2474C76.4075 51.3826 76.678 51.4586 77.061 51.4586H77.8284V52.6697L76.7235 52.6682Z" fill="white"/>
</g>
<defs>
<linearGradient id="paint0_linear_37_2716" x1="46" y1="0" x2="46" y2="92" gradientUnits="userSpaceOnUse">
<stop stop-color="#6971A2"/>
<stop offset="1" stop-color="#272A3C" stop-opacity="0.5"/>
</linearGradient>
<clipPath id="clip0_37_2716">
<rect width="62.9998" height="16.1814" fill="white" transform="translate(15 38)"/>
</clipPath>
</defs>
</svg>
