<svg width="92" height="92" viewBox="0 0 92 92" fill="none" xmlns="http://www.w3.org/2000/svg">
<circle cx="46" cy="46" r="46" fill="url(#paint0_linear_37_2732)"/>
<mask id="mask0_37_2732" style="mask-type:luminance" maskUnits="userSpaceOnUse" x="37" y="38" width="45" height="15">
<path d="M81.3503 38.3522H37.2329V52.1777H81.3503V38.3522Z" fill="white"/>
</mask>
<g mask="url(#mask0_37_2732)">
<path d="M37.2329 38.3522H39.8745L44.3664 46.6184L48.8582 38.3522H51.4427V51.935H49.2874V41.5248L45.3487 48.7334H43.3269L39.3882 41.5248V51.935H37.2329V38.3522Z" fill="white"/>
<path d="M58.3947 52.1777C57.3965 52.1777 56.5191 51.9529 55.7627 51.5034C55.0059 51.0539 54.4162 50.4313 53.9936 49.6357C53.5706 48.8401 53.3592 47.9281 53.3594 46.8997C53.3594 45.8584 53.5659 44.9367 53.9792 44.1346C54.3925 43.3327 54.9663 42.7053 55.7006 42.2524C56.435 41.7997 57.279 41.5734 58.2327 41.5732C59.1799 41.5732 59.9953 41.8012 60.6788 42.2572C61.3621 42.7133 61.8882 43.352 62.2572 44.1734C62.6258 44.9949 62.8101 45.9587 62.8103 47.0647V47.6661H55.4955C55.6291 48.4942 55.9581 49.1458 56.4827 49.6211C57.0072 50.0965 57.67 50.3342 58.471 50.3342C59.1132 50.3342 59.6663 50.2372 60.1305 50.0431C60.5944 49.8491 61.0301 49.5548 61.437 49.1603L62.5813 50.5865C61.4432 51.6474 60.0477 52.1777 58.3947 52.1777ZM59.9683 44.12C59.5168 43.6512 58.9255 43.4167 58.1945 43.4166C57.4823 43.4166 56.8863 43.6559 56.4063 44.1346C55.9262 44.6133 55.6227 45.2569 55.4955 46.0654H60.7408C60.6772 45.2374 60.4197 44.589 59.9683 44.12Z" fill="white"/>
<path d="M65.4235 43.6109H63.4399V41.816H65.4235V38.8472H67.5026V41.816H70.5161V43.6109H67.5026V48.1611C67.5026 48.9178 67.6297 49.4579 67.884 49.7813C68.1383 50.1048 68.5738 50.2665 69.1905 50.2664C69.4638 50.2664 69.6958 50.2551 69.8867 50.2325C70.0775 50.2099 70.2873 50.1792 70.5161 50.1403V51.9158C70.255 51.9925 69.989 52.051 69.7198 52.0905C69.412 52.1366 69.1012 52.1592 68.79 52.1584C66.5456 52.1584 65.4235 50.91 65.4235 48.4134V43.6109Z" fill="white"/>
<path d="M81.3502 51.9351H79.3095V50.5186C78.947 51.049 78.4861 51.4581 77.9266 51.7458C77.367 52.0336 76.7312 52.1775 76.0192 52.1777C75.1419 52.1777 74.3646 51.9497 73.6875 51.4936C73.0104 51.0376 72.4779 50.4102 72.0901 49.6114C71.7023 48.8126 71.5083 47.899 71.5083 46.8706C71.5083 45.8358 71.7054 44.9205 72.0996 44.1249C72.4937 43.3294 73.039 42.7052 73.7352 42.2524C74.4314 41.7997 75.2308 41.5734 76.1336 41.5732C76.8139 41.5732 77.4243 41.7075 77.9647 41.9759C78.4978 42.2383 78.9595 42.6297 79.3095 43.1159V41.8158H81.3502V51.9351ZM79.2713 45.3571C79.0486 44.7814 78.6974 44.327 78.2174 43.9939C77.7373 43.6608 77.1825 43.4943 76.5533 43.4943C75.6631 43.4943 74.9542 43.7983 74.4267 44.4062C73.8989 45.0143 73.6349 45.8357 73.6351 46.8706C73.6351 47.9121 73.8893 48.7367 74.398 49.3447C74.9065 49.9527 75.5964 50.2567 76.4674 50.2566C77.1095 50.2566 77.6817 50.0884 78.184 49.7521C78.6863 49.4159 79.0486 48.9632 79.2713 48.3938V45.3571Z" fill="white"/>
</g>
<mask id="mask1_37_2732" style="mask-type:luminance" maskUnits="userSpaceOnUse" x="11" y="37" width="22" height="16">
<path d="M32.786 37.8931H11.6494V52.1824H32.786V37.8931Z" fill="white"/>
</mask>
<g mask="url(#mask1_37_2732)">
<mask id="mask2_37_2732" style="mask-type:luminance" maskUnits="userSpaceOnUse" x="11" y="37" width="22" height="16">
<path d="M32.786 37.8931H11.6494V52.1824H32.786V37.8931Z" fill="white"/>
</mask>
<g mask="url(#mask2_37_2732)">
<path d="M17.7229 37.8931C17.7161 37.8931 17.7094 37.8931 17.7026 37.8931L17.6748 40.2287C17.6812 40.2287 17.6875 40.2286 17.6939 40.2286C19.205 40.2286 20.3772 41.4408 22.9248 45.8064L23.0801 46.0721L23.0902 46.0895L24.5164 43.9127L24.5065 43.8959C24.1709 43.3405 23.8484 42.8296 23.5392 42.363C23.1806 41.8225 22.8376 41.3396 22.5048 40.9084C20.8194 38.7254 19.4096 37.8931 17.7229 37.8931Z" fill="url(#paint1_linear_37_2732)"/>
<path d="M17.7027 37.8931C16.0078 37.902 14.5095 39.017 13.4275 40.7231C13.4243 40.7281 13.4211 40.7331 13.418 40.7381L15.4041 41.8379C15.4073 41.8329 15.4105 41.8279 15.4138 41.823C16.0456 40.8552 16.8318 40.2379 17.6749 40.2288C17.6813 40.2287 17.6877 40.2286 17.694 40.2286L17.7231 37.8931C17.7163 37.8931 17.7095 37.8931 17.7027 37.8931Z" fill="url(#paint2_linear_37_2732)"/>
<path d="M13.4274 40.7231C13.4242 40.7281 13.421 40.7331 13.4178 40.7381C12.7069 41.8641 12.1769 43.2457 11.8904 44.7363C11.8892 44.7428 11.888 44.7492 11.8867 44.7557L14.118 45.2913C14.1192 45.2848 14.1203 45.2783 14.1215 45.2719C14.36 43.9619 14.8141 42.747 15.4039 41.8379C15.4071 41.8329 15.4104 41.8279 15.4136 41.823L13.4274 40.7231Z" fill="url(#paint3_linear_37_2732)"/>
<path d="M14.1215 45.2718L11.8905 44.7362C11.8892 44.7427 11.888 44.7491 11.8867 44.7556C11.7306 45.5753 11.6511 46.4083 11.6494 47.2433C11.6494 47.25 11.6494 47.2568 11.6494 47.2635L13.9377 47.4718C13.9375 47.465 13.9373 47.4583 13.9372 47.4515C13.936 47.4031 13.9355 47.354 13.9354 47.3042C13.9366 46.629 13.9977 45.9552 14.118 45.2912C14.1192 45.2847 14.1204 45.2782 14.1215 45.2718Z" fill="url(#paint4_linear_37_2732)"/>
<path d="M14.0073 48.1982C13.9662 47.9582 13.943 47.7155 13.9377 47.4719C13.9375 47.4651 13.9373 47.4585 13.9372 47.4517L11.6494 47.2434C11.6494 47.2502 11.6494 47.2569 11.6494 47.2637C11.6494 47.7833 11.692 48.2712 11.7748 48.7207C11.776 48.7272 11.7772 48.7336 11.7784 48.7401L14.0107 48.2177C14.0096 48.2112 14.0084 48.2047 14.0073 48.1982Z" fill="url(#paint5_linear_37_2732)"/>
<path d="M14.5287 49.403C14.2797 49.1265 14.1035 48.7277 14.0109 48.2176C14.0097 48.2111 14.0085 48.2046 14.0074 48.1981L11.7749 48.7206C11.7761 48.7271 11.7773 48.7335 11.7785 48.74C11.9472 49.6413 12.2782 50.3924 12.7521 50.9607C12.7563 50.9658 12.7605 50.9708 12.7648 50.9758L14.542 49.4176C14.5376 49.4127 14.5331 49.4079 14.5287 49.403Z" fill="url(#paint6_linear_37_2732)"/>
<path d="M21.1425 42.9424C19.7972 45.0416 18.9822 46.3583 18.9822 46.3583C17.1902 49.2162 16.5702 49.8567 15.5725 49.8567C15.1562 49.8567 14.8084 49.7059 14.5419 49.4176C14.5375 49.4128 14.533 49.4079 14.5286 49.403L12.752 50.9608C12.7562 50.9659 12.7604 50.9708 12.7646 50.9759C13.419 51.7518 14.3427 52.1824 15.4853 52.1824C17.2141 52.1824 18.4574 51.3533 20.6677 47.4226C20.6677 47.4226 21.5891 45.7673 22.223 44.627C21.8304 43.9821 21.4731 43.4238 21.1425 42.9424Z" fill="#0082FB"/>
<path d="M23.5405 39.6289C23.536 39.6338 23.5313 39.6388 23.5268 39.6437C23.1735 40.0267 22.8345 40.4543 22.5046 40.908C22.8375 41.3391 23.1811 41.823 23.5397 42.3635C23.9624 41.6999 24.3569 41.1623 24.7437 40.7503C24.7482 40.7454 24.7528 40.7407 24.7573 40.7358L23.5405 39.6289Z" fill="url(#paint7_linear_37_2732)"/>
<path d="M30.0715 39.4231C29.1334 38.4589 28.0147 37.8931 26.8188 37.8931C25.5578 37.8931 24.4971 38.5961 23.5403 39.6289C23.5358 39.6338 23.5312 39.6388 23.5266 39.6437L24.7435 40.7503C24.748 40.7454 24.7526 40.7407 24.7571 40.7358C25.3874 40.0689 25.9973 39.7359 26.6735 39.7359C27.4013 39.7359 28.0826 40.0844 28.6726 40.6954C28.6773 40.7002 28.6818 40.705 28.6865 40.7098L30.0856 39.4375C30.0809 39.4327 30.0762 39.4279 30.0715 39.4231Z" fill="#0082FB"/>
<path d="M32.7842 46.9359C32.7315 43.8398 31.6665 41.072 30.0858 39.4374C30.0811 39.4326 30.0764 39.4279 30.0718 39.4231L28.6729 40.6954C28.6774 40.7002 28.6821 40.7049 28.6866 40.7097C29.8758 41.9525 30.6915 44.264 30.7657 46.9352C30.7659 46.942 30.7661 46.9487 30.7663 46.9554L32.7844 46.9561C32.7843 46.9494 32.7842 46.9426 32.7842 46.9359Z" fill="url(#paint8_linear_37_2732)"/>
<path d="M32.7843 46.9561C32.7842 46.9494 32.7842 46.9427 32.784 46.936L30.7656 46.9353C30.7659 46.942 30.766 46.9488 30.7663 46.9555C30.7695 47.0809 30.7711 47.207 30.7711 47.3339C30.7711 48.0622 30.6642 48.6509 30.4468 49.076C30.4436 49.0823 30.4402 49.0886 30.437 49.0949L31.9418 50.687C31.9456 50.6813 31.9492 50.6755 31.9529 50.6696C32.4992 49.8121 32.786 48.6208 32.786 47.1762C32.786 47.1027 32.7855 47.0293 32.7843 46.9561Z" fill="url(#paint9_linear_37_2732)"/>
<path d="M30.447 49.0759C30.4438 49.0822 30.4404 49.0886 30.4372 49.0948C30.249 49.4531 29.9804 49.692 29.6292 49.7965L30.3153 51.9959C30.4061 51.9646 30.4945 51.9294 30.5805 51.8902C30.6063 51.8786 30.6317 51.8667 30.657 51.8543C30.6716 51.8472 30.6861 51.84 30.7006 51.8328C31.1542 51.6028 31.5374 51.2634 31.8474 50.8265C31.8665 50.7998 31.8852 50.7729 31.9036 50.7454C31.9166 50.7261 31.9293 50.7067 31.942 50.687C31.9458 50.6812 31.9494 50.6755 31.9531 50.6696L30.447 49.0759Z" fill="url(#paint10_linear_37_2732)"/>
<path d="M29.1924 49.8567C28.9624 49.8567 28.7593 49.8218 28.5608 49.7316L27.8584 51.9834C28.2532 52.1206 28.6742 52.1825 29.1439 52.1825C29.5766 52.1825 29.9738 52.1164 30.3339 51.9896L29.6481 49.7908C29.5002 49.8359 29.3467 49.8581 29.1924 49.8567Z" fill="url(#paint11_linear_37_2732)"/>
<path d="M27.7867 49.0865C27.7824 49.0814 27.778 49.0763 27.7737 49.0712L26.1575 50.7812C26.162 50.7861 26.1664 50.7911 26.171 50.7959C26.7326 51.4047 27.2688 51.7825 27.877 51.9898L28.579 49.7396C28.3226 49.6277 28.0747 49.4247 27.7867 49.0865Z" fill="url(#paint12_linear_37_2732)"/>
<path d="M27.7736 49.0712C27.2888 48.4977 26.689 47.5427 25.7457 45.9985L24.5163 43.9127L24.5065 43.8959L23.0801 46.0722L23.0902 46.0896L23.9613 47.5803C24.8057 49.0177 25.4936 50.0576 26.1574 50.7812C26.1619 50.7862 26.1663 50.7911 26.1709 50.7959L27.7866 49.0865C27.7823 49.0815 27.7779 49.0764 27.7736 49.0712Z" fill="url(#paint13_linear_37_2732)"/>
</g>
</g>
<defs>
<linearGradient id="paint0_linear_37_2732" x1="46" y1="0" x2="46" y2="92" gradientUnits="userSpaceOnUse">
<stop stop-color="#6971A2"/>
<stop offset="1" stop-color="#272A3C" stop-opacity="0.5"/>
</linearGradient>
<linearGradient id="paint1_linear_37_2732" x1="23.5684" y1="45.2043" x2="18.7304" y2="38.9727" gradientUnits="userSpaceOnUse">
<stop offset="0.0006" stop-color="#0867DF"/>
<stop offset="0.4539" stop-color="#0668E1"/>
<stop offset="0.8591" stop-color="#0064E0"/>
</linearGradient>
<linearGradient id="paint2_linear_37_2732" x1="14.3509" y1="41.1156" x2="17.6375" y2="38.6629" gradientUnits="userSpaceOnUse">
<stop offset="0.1323" stop-color="#0064DF"/>
<stop offset="0.9988" stop-color="#0064E0"/>
</linearGradient>
<linearGradient id="paint3_linear_37_2732" x1="12.9749" y1="44.7946" x2="14.3161" y2="41.4759" gradientUnits="userSpaceOnUse">
<stop offset="0.0147" stop-color="#0072EC"/>
<stop offset="0.6881" stop-color="#0064DF"/>
</linearGradient>
<linearGradient id="paint4_linear_37_2732" x1="12.7981" y1="47.2034" x2="12.954" y2="45.1673" gradientUnits="userSpaceOnUse">
<stop offset="0.0731" stop-color="#007CF6"/>
<stop offset="0.9943" stop-color="#0072EC"/>
</linearGradient>
<linearGradient id="paint5_linear_37_2732" x1="12.881" y1="48.3098" x2="12.7695" y2="47.4943" gradientUnits="userSpaceOnUse">
<stop offset="0.0731" stop-color="#007FF9"/>
<stop offset="1" stop-color="#007CF6"/>
</linearGradient>
<linearGradient id="paint6_linear_37_2732" x1="12.8178" y1="48.524" x2="13.5085" y2="49.964" gradientUnits="userSpaceOnUse">
<stop offset="0.0731" stop-color="#007FF9"/>
<stop offset="1" stop-color="#0082FB"/>
</linearGradient>
<linearGradient id="paint7_linear_37_2732" x1="23.1406" y1="41.5119" x2="24.0486" y2="40.2775" gradientUnits="userSpaceOnUse">
<stop offset="0.2799" stop-color="#007FF8"/>
<stop offset="0.9141" stop-color="#0082FB"/>
</linearGradient>
<linearGradient id="paint8_linear_37_2732" x1="29.8914" y1="39.8928" x2="31.8092" y2="46.8275" gradientUnits="userSpaceOnUse">
<stop stop-color="#0082FB"/>
<stop offset="0.9995" stop-color="#0081FA"/>
</linearGradient>
<linearGradient id="paint9_linear_37_2732" x1="32.1973" y1="47.1102" x2="30.9889" y2="49.5104" gradientUnits="userSpaceOnUse">
<stop offset="0.0619" stop-color="#0081FA"/>
<stop offset="1" stop-color="#0080F9"/>
</linearGradient>
<linearGradient id="paint10_linear_37_2732" x1="30.0877" y1="50.8081" x2="31.1984" y2="50.0644" gradientUnits="userSpaceOnUse">
<stop stop-color="#027AF3"/>
<stop offset="1" stop-color="#0080F9"/>
</linearGradient>
<linearGradient id="paint11_linear_37_2732" x1="28.3641" y1="50.957" x2="29.8911" y2="50.957" gradientUnits="userSpaceOnUse">
<stop stop-color="#0377EF"/>
<stop offset="0.9994" stop-color="#0279F1"/>
</linearGradient>
<linearGradient id="paint12_linear_37_2732" x1="27.0365" y1="50.1014" x2="28.1439" y2="50.7418" gradientUnits="userSpaceOnUse">
<stop offset="0.0019" stop-color="#0471E9"/>
<stop offset="1" stop-color="#0377EF"/>
</linearGradient>
<linearGradient id="paint13_linear_37_2732" x1="23.6876" y1="45.2565" x2="27.2786" y2="49.6945" gradientUnits="userSpaceOnUse">
<stop offset="0.2765" stop-color="#0867DF"/>
<stop offset="1" stop-color="#0471E9"/>
</linearGradient>
</defs>
</svg>
