<svg width="92" height="92" viewBox="0 0 92 92" fill="none" xmlns="http://www.w3.org/2000/svg">
<circle cx="46" cy="46" r="46" fill="url(#paint0_linear_37_2766)"/>
<g clip-path="url(#clip0_37_2766)">
<path d="M61.0401 29.3287C56.9642 25.25 51.5444 23.0025 45.77 23C33.8709 23 24.1875 32.6803 24.1827 44.5789C24.1813 48.3823 25.1751 52.095 27.064 55.3676L24.0015 66.55L35.4451 63.5493C38.5981 65.2688 42.1481 66.1749 45.7607 66.1764H45.7699H45.77C57.6671 66.1764 67.352 56.4943 67.357 44.5964C67.359 38.8298 65.1155 33.4077 61.0401 29.3287ZM45.77 62.5316H45.763C42.5429 62.5299 39.3851 61.6654 36.6308 60.031L35.9753 59.6425L29.1844 61.4229L30.9975 54.8043L30.5704 54.1257C28.7742 51.2697 27.826 47.9693 27.8273 44.5803C27.8313 34.6906 35.8798 26.6449 45.7767 26.6449C50.5694 26.6469 55.0739 28.515 58.4617 31.9051C61.8493 35.2952 63.7135 39.8019 63.7121 44.5948C63.7079 54.4848 55.6591 62.5316 45.77 62.5316Z" fill="#E0E0E0"/>
<path d="M24.9924 65.3092L27.9151 54.6377C26.112 51.5145 25.1638 47.9711 25.1649 44.3422C25.1697 32.9874 34.4108 23.7495 45.7654 23.7495C51.2763 23.752 56.4486 25.8967 60.3375 29.7892C64.2272 33.6817 66.368 38.8557 66.3658 44.3583C66.361 55.7133 57.1193 64.952 45.7662 64.952C45.7654 64.952 45.7668 64.952 45.7662 64.952H45.757C42.3094 64.9509 38.9218 64.0855 35.9131 62.4457L24.9924 65.3092Z" fill="url(#paint1_linear_37_2766)"/>
<path fill-rule="evenodd" clip-rule="evenodd" d="M40.4355 35.4175C40.0362 34.5296 39.6157 34.5118 39.2357 34.4963C38.9249 34.483 38.5691 34.4838 38.2139 34.4838C37.8584 34.4838 37.2807 34.6174 36.7922 35.1509C36.3034 35.6845 34.9258 36.9743 34.9258 39.5975C34.9258 42.221 36.8366 44.756 37.103 45.112C37.3696 45.4675 40.7916 51.0229 46.2111 53.16C50.7152 54.9362 51.6318 54.5829 52.6094 54.494C53.5871 54.4051 55.764 53.2045 56.2083 51.9594C56.6527 50.7145 56.6527 49.6475 56.5194 49.4244C56.3861 49.2022 56.0306 49.0689 55.4973 48.8023C54.9641 48.5357 52.3428 47.2456 51.854 47.0678C51.3651 46.8901 51.0096 46.8012 50.6541 47.335C50.2986 47.8683 49.2774 49.0689 48.9663 49.4244C48.6552 49.7808 48.3442 49.8252 47.8109 49.5586C47.2776 49.2911 45.5604 48.7287 43.5232 46.9122C41.9381 45.4991 40.868 43.7538 40.5569 43.22C40.2459 42.6867 40.5236 42.3979 40.7911 42.1321C41.0305 41.8932 41.3243 41.5097 41.5909 41.1983C41.857 40.887 41.9459 40.6648 42.1236 40.3093C42.3014 39.9532 42.2125 39.6419 42.0792 39.3752C41.9459 39.1086 40.9097 36.4718 40.4355 35.4175Z" fill="white"/>
<path d="M60.8637 29.2601C56.8345 25.2282 51.477 23.0066 45.7689 23.004C34.0064 23.004 24.4341 32.5732 24.4294 44.3352C24.428 48.095 25.4104 51.765 27.2776 55.0001L24.2502 66.0541L35.5625 63.0878C38.6793 64.7876 42.1886 65.6833 45.7597 65.6847H45.7688H45.7689C57.5294 65.6847 67.1031 56.1138 67.1081 44.3524C67.1101 38.6521 64.8923 33.2923 60.8637 29.2601ZM45.7689 62.0819H45.762C42.5788 62.0802 39.4573 61.2256 36.7346 59.61L36.0866 59.2259L29.3737 60.9859L31.1659 54.4432L30.7438 53.7725C28.9682 50.9493 28.0308 47.6867 28.0322 44.3366C28.0361 34.5605 35.9922 26.6071 45.7756 26.6071C50.5133 26.6091 54.966 28.4558 58.3149 31.807C61.6636 35.1582 63.5064 39.6131 63.505 44.3511C63.5008 54.1274 55.5444 62.0819 45.7689 62.0819Z" fill="white"/>
</g>
<defs>
<linearGradient id="paint0_linear_37_2766" x1="46" y1="0" x2="46" y2="92" gradientUnits="userSpaceOnUse">
<stop stop-color="#6971A2"/>
<stop offset="1" stop-color="#272A3C" stop-opacity="0.5"/>
</linearGradient>
<linearGradient id="paint1_linear_37_2766" x1="45.6791" y1="65.3092" x2="45.6791" y2="23.7496" gradientUnits="userSpaceOnUse">
<stop stop-color="#20B038"/>
<stop offset="1" stop-color="#60D66A"/>
</linearGradient>
<clipPath id="clip0_37_2766">
<rect width="43.3584" height="43.55" fill="white" transform="translate(24 23)"/>
</clipPath>
</defs>
</svg>
