<svg width="92" height="92" viewBox="0 0 92 92" fill="none" xmlns="http://www.w3.org/2000/svg">
<circle cx="46" cy="46" r="46" fill="url(#paint0_linear_37_2773)"/>
<g clip-path="url(#clip0_37_2773)">
<path d="M64.4276 40.8247C65.4156 37.8592 65.0754 34.6105 63.4953 31.9132C61.1191 27.7758 56.3421 25.6472 51.6767 26.649C49.6012 24.3108 46.6194 22.9811 43.4932 23.0002C38.7244 22.9893 34.4932 26.0597 33.026 30.5971C29.9624 31.2245 27.3181 33.1422 25.7707 35.86C23.3768 39.9864 23.9225 45.188 27.1208 48.7265C26.1328 51.6921 26.473 54.9407 28.053 57.6381C30.4293 61.7754 35.2063 63.904 39.8717 62.9023C41.9458 65.2405 44.929 66.5701 48.0552 66.5497C52.8267 66.5619 57.0593 63.4889 58.5265 58.9473C61.59 58.3199 64.2343 56.4023 65.7818 53.6845C68.173 49.558 67.6259 44.3605 64.429 40.822L64.4276 40.8247ZM48.0579 63.704C46.1485 63.7067 44.2989 63.0385 42.8332 61.815C42.8998 61.7796 43.0155 61.7156 43.0904 61.6694L51.7624 56.661C52.2061 56.4093 52.4783 55.937 52.4756 55.4267V43.2009L56.1407 45.3173C56.1801 45.3363 56.206 45.3744 56.2114 45.418V55.5423C56.206 60.0443 52.5599 63.6944 48.0579 63.704ZM30.5231 56.2146C29.5664 54.5624 29.2221 52.6257 29.5501 50.7462C29.614 50.7843 29.727 50.8537 29.8073 50.9L38.4793 55.9084C38.9189 56.1656 39.4633 56.1656 39.9042 55.9084L50.4912 49.7949V54.0275C50.494 54.071 50.4735 54.1132 50.4395 54.1404L41.6735 59.2018C37.7689 61.4502 32.7824 60.1136 30.5245 56.2145L30.5231 56.2146ZM28.2408 37.2849C29.1935 35.63 30.6974 34.3642 32.4884 33.7069C32.4884 33.7817 32.4843 33.9137 32.4843 34.0063V44.0244C32.4816 44.5334 32.7538 45.0056 33.1961 45.2574L43.7831 51.3695L40.118 53.4858C40.0813 53.5103 40.035 53.5144 39.9942 53.4967L31.2268 48.4312C27.3304 46.1747 25.9939 41.1895 28.2395 37.2862L28.2408 37.2849ZM58.3535 44.2925L47.7666 38.179L51.4316 36.0641C51.4684 36.0396 51.5147 36.0355 51.5555 36.0532L60.3228 41.1146C64.2261 43.3697 65.5639 48.3631 63.3088 52.2664C62.3548 53.9186 60.8522 55.1843 59.0626 55.843V45.5255C59.0667 45.0165 58.7958 44.5456 58.3549 44.2925H58.3535ZM62.0009 38.8023C61.937 38.7628 61.824 38.6948 61.7437 38.6485L53.0717 33.6402C52.6321 33.383 52.0877 33.383 51.6468 33.6402L41.0598 39.7536V35.521C41.057 35.4774 41.0775 35.4353 41.1115 35.408L49.8775 30.3507C53.7821 28.0983 58.7741 29.4389 61.0251 33.3449C61.9764 34.9944 62.3208 36.9256 61.9982 38.8023H62.0009ZM39.0674 46.3461L35.4009 44.2299C35.3614 44.2108 35.3356 44.1727 35.3301 44.1292V34.0049C35.3329 29.4974 38.9898 25.8446 43.4973 25.8473C45.404 25.8473 47.2495 26.5169 48.7152 27.7363C48.6485 27.7716 48.5342 27.8356 48.458 27.8819L39.7859 32.8903C39.3423 33.1421 39.0701 33.613 39.0728 34.1233L39.0674 46.3434V46.3461ZM41.0584 42.0537L45.7741 39.3303L50.4899 42.0523V47.4975L45.7741 50.2195L41.0584 47.4975V42.0537Z" fill="white"/>
</g>
<defs>
<linearGradient id="paint0_linear_37_2773" x1="46" y1="0" x2="46" y2="92" gradientUnits="userSpaceOnUse">
<stop stop-color="#6971A2"/>
<stop offset="1" stop-color="#272A3C" stop-opacity="0.5"/>
</linearGradient>
<clipPath id="clip0_37_2773">
<rect width="43.55" height="43.55" fill="white" transform="translate(24 23)"/>
</clipPath>
</defs>
</svg>
