<svg width="92" height="92" viewBox="0 0 92 92" fill="none" xmlns="http://www.w3.org/2000/svg">
<circle cx="46" cy="46" r="46" fill="url(#paint0_linear_37_2777)"/>
<g clip-path="url(#clip0_37_2777)">
<path d="M15.6484 52.5087C12.5797 52.5087 10 50.0109 10 46.9421C10 43.8734 12.5797 41.3755 15.6484 41.3755C17.3455 41.3755 18.5536 42.0405 19.4639 42.9091L18.3916 43.9814C17.7405 43.3704 16.858 42.8952 15.6484 42.8952C13.4082 42.8952 11.657 44.7003 11.657 46.9406C11.657 49.1808 13.4082 50.9875 15.6484 50.9875C17.1018 50.9875 17.9287 50.4043 18.4595 49.8735C18.8946 49.4385 19.1785 48.8151 19.288 47.9589H15.6623V46.4376H20.7661C20.8201 46.7091 20.8478 47.0347 20.8478 47.388C20.8478 48.5282 20.5362 49.9399 19.5302 50.9458C18.5536 51.9657 17.3039 52.5087 15.6484 52.5087Z" fill="#4285F4"/>
<path d="M28.5063 48.9243C28.5063 50.9886 26.8956 52.5083 24.9192 52.5083C22.9428 52.5083 21.332 50.9871 21.332 48.9243C21.332 46.8476 22.9428 45.3402 24.9192 45.3402C26.8956 45.3402 28.5063 46.846 28.5063 48.9243ZM26.9357 48.9243C26.9357 47.6344 26.0023 46.7519 24.9192 46.7519C23.8361 46.7519 22.9027 47.6344 22.9027 48.9243C22.9027 50.2002 23.8361 51.0966 24.9192 51.0966C26.0023 51.0966 26.9357 50.2002 26.9357 48.9243Z" fill="#E94235"/>
<path d="M36.3858 48.9243C36.3858 50.9886 34.7705 52.5083 32.7879 52.5083C30.8053 52.5083 29.1899 50.9871 29.1899 48.9243C29.1899 46.8476 30.8053 45.3402 32.7879 45.3402C34.7705 45.3402 36.3858 46.846 36.3858 48.9243ZM34.8106 48.9243C34.8106 47.6344 33.8741 46.7519 32.7879 46.7519C31.7017 46.7519 30.7652 47.6344 30.7652 48.9243C30.7652 50.2002 31.7017 51.0966 32.7879 51.0966C33.8741 51.0966 34.8106 50.2002 34.8106 48.9243Z" fill="#FABB05"/>
<path d="M43.8965 45.5567V51.9919C43.8965 54.6394 42.3351 55.7256 40.4883 55.7256C38.751 55.7256 37.705 54.5577 37.3116 53.6073L38.6832 53.0364C38.9269 53.6196 39.5256 54.3124 40.4883 54.3124C41.6701 54.3124 42.403 53.5795 42.403 52.2079V51.6926H42.349C41.9957 52.1277 41.3168 52.5072 40.4621 52.5072C38.6693 52.5072 37.0308 50.9458 37.0308 48.9371C37.0308 46.9144 38.6693 45.3391 40.4621 45.3391C41.3168 45.3391 41.9957 45.7187 42.349 46.1399H42.403V45.5567H43.8965ZM42.511 48.9371C42.511 47.675 41.6686 46.7508 40.5963 46.7508C39.5101 46.7508 38.5998 47.6735 38.5998 48.9371C38.5998 50.1868 39.5101 51.0955 40.5963 51.0955C41.6701 51.097 42.511 50.1868 42.511 48.9371Z" fill="#4285F4"/>
<path d="M46.4278 41.7996V52.291H44.8618V41.7996H46.4278Z" fill="#34A853"/>
<path d="M52.4593 50.1045L53.6813 50.9192C53.2878 51.5024 52.3374 52.5083 50.6943 52.5083C48.6577 52.5083 47.1365 50.9331 47.1365 48.9243C47.1365 46.792 48.6701 45.3402 50.5169 45.3402C52.3776 45.3402 53.2863 46.8198 53.5856 47.6206L53.7492 48.0279L48.957 50.0104C49.3242 50.7294 49.8936 51.0966 50.6943 51.0966C51.495 51.0966 52.052 50.7016 52.4593 50.1045ZM48.6978 48.8147L51.9024 47.4848C51.7265 47.0374 51.1957 46.7242 50.5724 46.7242C49.7701 46.7242 48.6577 47.4308 48.6978 48.8147Z" fill="#E94235"/>
</g>
<path d="M58.9636 53H57.7338L61.2906 43.3136H62.5014L66.0581 53H64.8283L61.9338 44.8461H61.8581L58.9636 53ZM59.4176 49.2163H64.3743V50.2568H59.4176V49.2163ZM70.1587 53.1513C69.5533 53.1513 69.0188 52.9984 68.5553 52.6926C68.0918 52.3836 67.7292 51.9484 67.4675 51.3872C67.2058 50.8228 67.0749 50.1559 67.0749 49.3865C67.0749 48.6235 67.2058 47.9613 67.4675 47.4001C67.7292 46.8388 68.0934 46.4053 68.5601 46.0994C69.0267 45.7936 69.5659 45.6406 70.1776 45.6406C70.6506 45.6406 71.0242 45.7195 71.2985 45.8771C71.576 46.0316 71.7873 46.2082 71.9323 46.4068C72.0805 46.6023 72.1956 46.7631 72.2776 46.8893H72.3722V43.3136H73.4884V53H72.41V51.8838H72.2776C72.1956 52.0162 72.0789 52.1833 71.9276 52.3851C71.7762 52.5838 71.5602 52.7619 71.2796 52.9196C70.999 53.0741 70.6253 53.1513 70.1587 53.1513ZM70.31 52.1487C70.7578 52.1487 71.1361 52.032 71.4451 51.7987C71.7542 51.5622 71.9891 51.2358 72.1499 50.8196C72.3107 50.4003 72.3911 49.9163 72.3911 49.3676C72.3911 48.8253 72.3123 48.3507 72.1546 47.944C71.9969 47.5341 71.7636 47.2156 71.4546 46.9886C71.1456 46.7584 70.7641 46.6433 70.31 46.6433C69.8371 46.6433 69.4429 46.7647 69.1276 47.0075C68.8155 47.2471 68.5805 47.5735 68.4229 47.9866C68.2684 48.3965 68.1911 48.8568 68.1911 49.3676C68.1911 49.8847 68.27 50.3545 68.4276 50.7771C68.5884 51.1964 68.8249 51.5307 69.1371 51.7797C69.4524 52.0257 69.8434 52.1487 70.31 52.1487ZM80.8335 47.3622L79.8308 47.646C79.7678 47.4789 79.6748 47.3165 79.5518 47.1589C79.432 46.9981 79.268 46.8656 79.0599 46.7616C78.8518 46.6575 78.5854 46.6055 78.2606 46.6055C77.816 46.6055 77.4455 46.708 77.1491 46.9129C76.8559 47.1147 76.7093 47.3717 76.7093 47.6839C76.7093 47.9613 76.8102 48.1805 77.012 48.3413C77.2138 48.5021 77.5291 48.6361 77.9579 48.7433L79.0363 49.0082C79.6858 49.1658 80.1698 49.407 80.4883 49.7318C80.8067 50.0534 80.966 50.4681 80.966 50.9757C80.966 51.3919 80.8461 51.764 80.6065 52.0919C80.37 52.4198 80.039 52.6784 79.6133 52.8676C79.1876 53.0568 78.6926 53.1513 78.1282 53.1513C77.3872 53.1513 76.7739 52.9905 76.2883 52.6689C75.8027 52.3473 75.4953 51.8775 75.366 51.2595L76.4255 50.9946C76.5264 51.3856 76.7172 51.6788 76.9978 51.8743C77.2816 52.0698 77.652 52.1676 78.1092 52.1676C78.6295 52.1676 79.0426 52.0572 79.3484 51.8365C79.6574 51.6126 79.8119 51.3446 79.8119 51.0325C79.8119 50.7802 79.7236 50.569 79.5471 50.3987C79.3705 50.2253 79.0993 50.096 78.7336 50.0109L77.5228 49.7271C76.8575 49.5694 76.3687 49.325 76.0566 48.994C75.7476 48.6597 75.5931 48.242 75.5931 47.7406C75.5931 47.3307 75.7082 46.9681 75.9383 46.6528C76.1717 46.3375 76.4886 46.09 76.889 45.9102C77.2926 45.7305 77.7498 45.6406 78.2606 45.6406C78.9795 45.6406 79.5439 45.7983 79.9538 46.1136C80.3669 46.4289 80.6601 46.8451 80.8335 47.3622Z" fill="white"/>
<defs>
<linearGradient id="paint0_linear_37_2777" x1="46" y1="0" x2="46" y2="92" gradientUnits="userSpaceOnUse">
<stop stop-color="#6971A2"/>
<stop offset="1" stop-color="#272A3C" stop-opacity="0.5"/>
</linearGradient>
<clipPath id="clip0_37_2777">
<rect width="43.7477" height="14.3501" fill="white" transform="translate(10 41.3755)"/>
</clipPath>
</defs>
</svg>
