<svg width="92" height="92" viewBox="0 0 92 92" fill="none" xmlns="http://www.w3.org/2000/svg">
<circle cx="46" cy="46" r="46" fill="url(#paint0_linear_37_2789)"/>
<g clip-path="url(#clip0_37_2789)">
<path d="M52.25 39.1173H48.8125C48.4674 39.1173 48.1875 39.3971 48.1875 39.7423C48.1875 40.0875 48.4674 40.3673 48.8125 40.3673H51.625V51.6173H40.375V40.3673H43.1875C43.5326 40.3673 43.8125 40.0875 43.8125 39.7423C43.8125 39.3971 43.5326 39.1173 43.1875 39.1173H39.75C39.4049 39.1173 39.125 39.3971 39.125 39.7423V52.2423C39.125 52.5875 39.4049 52.8673 39.75 52.8673H52.25C52.5951 52.8673 52.875 52.5875 52.875 52.2423V39.7423C52.875 39.3971 52.5951 39.1173 52.25 39.1173Z" fill="white"/>
<path d="M42.5538 49.0764C42.627 49.1042 42.7021 49.1175 42.7761 49.1175C43.028 49.1175 43.2653 48.9641 43.3603 48.7147L43.6746 47.8896H45.8285L46.1393 48.7129C46.2611 49.0359 46.6215 49.1989 46.9447 49.077C47.2676 48.9551 47.4306 48.5945 47.3087 48.2716L45.4483 43.3418C45.4461 43.3361 45.4439 43.3303 45.4415 43.3246C45.3271 43.0467 45.0592 42.8673 44.7588 42.8673C44.7585 42.8673 44.7583 42.8673 44.758 42.8673C44.4573 42.8676 44.1893 43.0476 44.0754 43.3259C44.0735 43.3307 44.0716 43.3354 44.0698 43.3402L42.1923 48.2698C42.0693 48.5924 42.2312 48.9535 42.5538 49.0764ZM44.7565 45.0491L45.3568 46.6396H44.1507L44.7565 45.0491Z" fill="white"/>
<path d="M49.8489 48.4923V43.4923C49.8489 43.1471 49.569 42.8673 49.2239 42.8673C48.8788 42.8673 48.5989 43.1471 48.5989 43.4923V48.4923C48.5989 48.8375 48.8788 49.1173 49.2239 49.1173C49.569 49.1173 49.8489 48.8375 49.8489 48.4923Z" fill="white"/>
<path d="M61.375 50.0291H55.875V46.625H57.4902C57.7482 47.3524 58.4429 47.875 59.2577 47.875C60.2916 47.875 61.1327 47.0339 61.1327 46C61.1327 44.9661 60.2916 44.125 59.2577 44.125C58.443 44.125 57.7482 44.6476 57.4902 45.375H55.875V41.9709H61.375C61.7201 41.9709 62 41.6911 62 41.3459C62 41.0007 61.7201 40.7209 61.375 40.7209H55.875V38.7978C55.875 37.3197 54.6725 36.1172 53.1944 36.1172H51.2791V32.5H53.4824C53.7404 33.2274 54.4351 33.75 55.2499 33.75C56.2838 33.75 57.1249 32.9089 57.1249 31.875C57.1249 30.8411 56.2839 30 55.25 30C54.4352 30 53.7405 30.5226 53.4825 31.25H50.6541C50.309 31.25 50.0291 31.5298 50.0291 31.875V36.1172H46.625V34.5175C47.3524 34.2595 47.875 33.5648 47.875 32.75C47.875 31.7161 47.0339 30.875 46 30.875C44.9661 30.875 44.125 31.7161 44.125 32.75C44.125 33.5647 44.6476 34.2595 45.375 34.5175V36.1172H41.9709V31.875C41.9709 31.5298 41.691 31.25 41.3459 31.25H38.5175C38.2595 30.5226 37.5648 30 36.75 30C35.7161 30 34.875 30.8411 34.875 31.875C34.875 32.9089 35.7161 33.75 36.75 33.75C37.5648 33.75 38.2595 33.2274 38.5175 32.5H40.7209V36.1172H38.8055C37.3275 36.1172 36.125 37.3197 36.125 38.7978V40.7209H30.625C30.2799 40.7209 30 41.0007 30 41.3459C30 41.6911 30.2799 41.9709 30.625 41.9709H36.125V45.375H34.5097C34.2517 44.6476 33.5571 44.125 32.7422 44.125C31.7084 44.125 30.8673 44.9661 30.8673 46C30.8673 47.0339 31.7084 47.875 32.7422 47.875C33.557 47.875 34.2517 47.3524 34.5097 46.625H36.125V50.0291H30.625C30.2799 50.0291 30 50.3089 30 50.6541C30 50.9993 30.2799 51.2791 30.625 51.2791H36.125V53.1867C36.125 54.6647 37.3275 55.8673 38.8056 55.8673H40.7209V59.5H38.5175C38.2595 58.7726 37.5648 58.25 36.75 58.25C35.7161 58.25 34.875 59.0911 34.875 60.125C34.875 61.1589 35.7161 62 36.75 62C37.5648 62 38.2595 61.4774 38.5175 60.75H41.3459C41.691 60.75 41.9709 60.4702 41.9709 60.125V55.8673H45.375V57.4825C44.6476 57.7405 44.125 58.4352 44.125 59.25C44.125 60.2839 44.9661 61.125 46 61.125C47.0339 61.125 47.875 60.2839 47.875 59.25C47.875 58.4352 47.3524 57.7405 46.625 57.4825V55.8673H50.0291V60.125C50.0291 60.4702 50.309 60.75 50.6541 60.75H53.4825C53.7405 61.4774 54.4352 62 55.25 62C56.2839 62 57.125 61.1589 57.125 60.125C57.125 59.0911 56.2839 58.25 55.25 58.25C54.4352 58.25 53.7405 58.7726 53.4825 59.5H51.2791V55.8673H53.1945C54.6725 55.8673 55.8751 54.6647 55.8751 53.1867V51.2791H61.3751C61.7202 51.2791 62.0001 50.9993 62.0001 50.6541C62.0001 50.3089 61.7201 50.0291 61.375 50.0291ZM59.2577 45.375C59.6024 45.375 59.8827 45.6554 59.8827 46C59.8827 46.3446 59.6024 46.625 59.2577 46.625C58.9131 46.625 58.6327 46.3446 58.6327 46C58.6327 45.6554 58.9131 45.375 59.2577 45.375ZM55.25 31.25C55.5946 31.25 55.875 31.5304 55.875 31.875C55.875 32.2196 55.5946 32.5 55.25 32.5C54.9054 32.5 54.625 32.2196 54.625 31.875C54.625 31.5304 54.9054 31.25 55.25 31.25ZM46 32.125C46.3446 32.125 46.625 32.4054 46.625 32.75C46.625 33.0946 46.3446 33.375 46 33.375C45.6554 33.375 45.375 33.0946 45.375 32.75C45.375 32.4054 45.6554 32.125 46 32.125ZM36.75 32.5C36.4054 32.5 36.125 32.2196 36.125 31.875C36.125 31.5304 36.4054 31.25 36.75 31.25C37.0946 31.25 37.375 31.5304 37.375 31.875C37.375 32.2196 37.0946 32.5 36.75 32.5ZM32.7422 46.625C32.3976 46.625 32.1172 46.3446 32.1172 46C32.1172 45.6554 32.3976 45.375 32.7422 45.375C33.0869 45.375 33.3672 45.6554 33.3672 46C33.3672 46.3446 33.0869 46.625 32.7422 46.625ZM36.75 60.75C36.4054 60.75 36.125 60.4696 36.125 60.125C36.125 59.7804 36.4054 59.5 36.75 59.5C37.0946 59.5 37.375 59.7804 37.375 60.125C37.375 60.4696 37.0946 60.75 36.75 60.75ZM46 59.875C45.6554 59.875 45.375 59.5946 45.375 59.25C45.375 58.9054 45.6554 58.625 46 58.625C46.3446 58.625 46.625 58.9054 46.625 59.25C46.625 59.5946 46.3446 59.875 46 59.875ZM55.25 59.5C55.5946 59.5 55.875 59.7804 55.875 60.125C55.875 60.4696 55.5946 60.75 55.25 60.75C54.9054 60.75 54.625 60.4696 54.625 60.125C54.625 59.7804 54.9054 59.5 55.25 59.5ZM54.625 53.1867C54.625 53.9755 53.9832 54.6173 53.1944 54.6173H38.8056C38.0168 54.6173 37.375 53.9755 37.375 53.1867V38.7978C37.375 38.009 38.0168 37.3672 38.8056 37.3672H53.1945C53.9833 37.3672 54.6251 38.009 54.6251 38.7978V53.1867H54.625Z" fill="white"/>
<path d="M46 40.3673C46.3452 40.3673 46.625 40.0875 46.625 39.7423C46.625 39.3971 46.3452 39.1173 46 39.1173C45.6548 39.1173 45.375 39.3971 45.375 39.7423C45.375 40.0875 45.6548 40.3673 46 40.3673Z" fill="white"/>
</g>
<defs>
<linearGradient id="paint0_linear_37_2789" x1="46" y1="0" x2="46" y2="92" gradientUnits="userSpaceOnUse">
<stop stop-color="#6971A2"/>
<stop offset="1" stop-color="#272A3C" stop-opacity="0.5"/>
</linearGradient>
<clipPath id="clip0_37_2789">
<rect width="32" height="32" fill="white" transform="translate(30 30)"/>
</clipPath>
</defs>
</svg>
