<svg width="92" height="92" viewBox="0 0 92 92" fill="none" xmlns="http://www.w3.org/2000/svg">
<circle cx="46" cy="46" r="46" fill="url(#paint0_linear_37_2799)"/>
<g clip-path="url(#clip0_37_2799)">
<path d="M62.7739 59.3636C62.7739 59.3636 61.4492 58.7705 61.4492 58.0389V50.2566C61.4492 49.525 62.0423 48.9319 62.7739 48.9319C63.5055 48.9319 64.0986 49.525 64.0986 50.2566L64.0985 58.0388L62.7739 59.3636Z" fill="#CFCFE6"/>
<path d="M64.0986 58.0388V61.6711C64.0986 63.8622 62.3155 65.6452 60.1245 65.6452C57.9334 65.6452 56.1504 63.8622 56.1504 61.6711V58.0388C56.1504 55.8477 57.9334 54.0647 60.1245 54.0647C62.3155 54.0647 64.0986 55.8477 64.0986 58.0388Z" fill="#3E3373"/>
<path d="M28.4414 59.3636L27.1167 58.0389V50.2566C27.1167 49.525 27.7098 48.9319 28.4414 48.9319C29.173 48.9319 29.7661 49.525 29.7661 50.2566V58.0389C29.7661 58.7705 28.4414 59.3636 28.4414 59.3636Z" fill="#E6E6F2"/>
<path d="M35.0649 58.0388V61.6711C35.0649 63.8622 33.2818 65.6452 31.0908 65.6452C28.8997 65.6452 27.1167 63.8622 27.1167 61.6711V58.0388C27.1167 55.8477 28.8997 54.0647 31.0908 54.0647C33.2818 54.0647 35.0649 55.8477 35.0649 58.0388Z" fill="#574D8C"/>
<path d="M45.6077 54.8163L49.8206 64.9175L45.6077 70.2163H43.1041C37.21 70.2163 32.4155 65.4218 32.4155 59.5278V56.141L33.7402 54.8163H45.6077Z" fill="#BF80FF"/>
<path d="M58.8001 56.141V59.5278C58.8001 65.4218 54.0056 70.2163 48.1116 70.2163H45.6079V54.8163H57.4754L58.8001 56.141Z" fill="#A64DFF"/>
<path d="M45.6077 50.2567L49.8206 55.2401L45.6077 62.0262H39.6245C36.3746 62.0262 33.7402 59.3918 33.7402 56.141C33.7402 54.5161 34.399 53.0448 35.4641 51.9797C36.5283 50.9155 37.9996 50.2567 39.6245 50.2567H45.6077Z" fill="#574D8C"/>
<path d="M57.4754 56.141C57.4754 57.766 56.8166 59.2373 55.7516 60.3023C54.6874 61.3674 53.2161 62.0262 51.5911 62.0262H45.6079V50.2567H51.5911C54.841 50.2567 57.4754 52.8911 57.4754 56.141Z" fill="#3E3373"/>
<path d="M45.608 25L53.8215 33.4882L45.608 48.9328C45.2053 48.9328 44.8238 48.7492 44.5721 48.4339L40.885 43.8107H32.935C32.2038 43.8107 31.6104 43.2172 31.6104 42.486V26.3247C31.6104 25.5935 32.2038 25 32.935 25L45.608 25Z" fill="#FFDD00"/>
<path d="M59.6055 26.3247V42.486C59.6055 43.2172 59.0121 43.8107 58.2808 43.8107H50.3309L46.6438 48.4339C46.3921 48.7492 46.0106 48.9328 45.6079 48.9328V25H58.2808C59.0121 25 59.6055 25.5935 59.6055 26.3247Z" fill="#FFBB00"/>
<path d="M39.6025 57.4109C40.3341 57.4109 40.9272 56.8178 40.9272 56.0862C40.9272 55.3546 40.3341 54.7615 39.6025 54.7615C38.8709 54.7615 38.2778 55.3546 38.2778 56.0862C38.2778 56.8178 38.8709 57.4109 39.6025 57.4109Z" fill="#1EE6A4"/>
<path d="M51.6133 57.4109C52.3449 57.4109 52.938 56.8178 52.938 56.0862C52.938 55.3546 52.3449 54.7615 51.6133 54.7615C50.8817 54.7615 50.2886 55.3546 50.2886 56.0862C50.2886 56.8178 50.8817 57.4109 51.6133 57.4109Z" fill="#19B3B4"/>
<path d="M45.6077 30.4313L46.9613 31.756L45.6077 33.0807H39.4258C38.6945 33.0807 38.1011 32.4872 38.1011 31.756C38.1011 31.0247 38.6945 30.4313 39.4258 30.4313H45.6077Z" fill="#BF80FF"/>
<path d="M45.6077 35.7301L47.4241 36.9665L45.6077 38.3795H39.4258C38.6945 38.3795 38.1011 37.786 38.1011 37.0548C38.1011 36.3236 38.6945 35.7301 39.4258 35.7301H45.6077Z" fill="#BF80FF"/>
<path d="M53.1145 37.0547C53.1145 37.7859 52.5211 38.3794 51.7898 38.3794H45.6079V35.73H51.7898C52.5211 35.73 53.1145 36.3234 53.1145 37.0547Z" fill="#A64DFF"/>
<path d="M53.1145 31.756C53.1145 32.4872 52.5211 33.0807 51.7898 33.0807H45.6079V30.4313H51.7898C52.5211 30.4313 53.1145 31.0247 53.1145 31.756Z" fill="#A64DFF"/>
<path d="M39.6245 51.5814H45.6077L47.7324 50.1629L45.6077 48.932H39.6245C35.6496 48.932 32.4155 52.166 32.4155 56.141C32.4155 60.1169 35.6496 63.3509 39.6245 63.3509H45.6077L46.9613 61.6233L45.6077 60.7015H39.6245C37.1103 60.7015 35.0649 58.6562 35.0649 56.141C35.0649 53.6267 37.1103 51.5814 39.6245 51.5814Z" fill="#CCEEFF"/>
<path d="M58.8001 56.141C58.8001 60.1169 55.5661 63.3509 51.5911 63.3509H45.6079V60.7015H51.5911C54.1054 60.7015 56.1507 58.6562 56.1507 56.141C56.1507 53.6267 54.1054 51.5814 51.5911 51.5814H45.6079V48.932H51.5911C55.5661 48.932 58.8001 52.166 58.8001 56.141Z" fill="#99DDFF"/>
</g>
<defs>
<linearGradient id="paint0_linear_37_2799" x1="46" y1="0" x2="46" y2="92" gradientUnits="userSpaceOnUse">
<stop stop-color="#6971A2"/>
<stop offset="1" stop-color="#272A3C" stop-opacity="0.5"/>
</linearGradient>
<clipPath id="clip0_37_2799">
<rect width="45.2163" height="45.2163" fill="white" transform="translate(23 25)"/>
</clipPath>
</defs>
</svg>
