<svg width="92" height="92" viewBox="0 0 92 92" fill="none" xmlns="http://www.w3.org/2000/svg">
<circle cx="46" cy="46" r="46" fill="url(#paint0_linear_37_2602)"/>
<path d="M37.7446 69.2732C39.9381 70.1558 42.3177 70.6798 44.8163 70.767C48.1979 70.8851 51.4135 70.1859 54.2882 68.8578C50.8409 67.5035 47.7189 65.523 45.0544 63.0603C43.3272 65.8259 40.7726 68.01 37.7446 69.2732Z" fill="#FF9100"/>
<path d="M45.0539 63.0608C38.9715 57.4356 35.2817 49.2937 35.5936 40.3635C35.6037 40.0735 35.619 39.7837 35.6369 39.494C34.5476 39.2122 33.4103 39.0403 32.24 38.9994C30.5648 38.9409 28.9425 39.1487 27.4109 39.58C25.7872 42.4242 24.8074 45.6876 24.6853 49.1829C24.3703 58.2039 29.8294 66.0861 37.7441 69.2737C40.7721 68.0106 43.3266 65.8288 45.0539 63.0608Z" fill="#FFC400"/>
<path d="M45.0538 63.0608C46.4679 60.7978 47.3253 58.1446 47.4251 55.2862C47.6877 47.767 42.6329 41.2988 35.6369 39.4939C35.619 39.7836 35.6036 40.0734 35.5935 40.3634C35.2817 49.2936 38.9715 57.4355 45.0538 63.0608Z" fill="#FF9100"/>
<path d="M46.643 18.3582C42.6585 21.5502 39.5121 25.7593 37.6085 30.608C36.5186 33.3852 35.8337 36.3685 35.6338 39.4957C42.6298 41.3006 47.6847 47.7689 47.4221 55.288C47.3223 58.1464 46.4624 60.7969 45.0508 63.0626C47.7152 65.5277 50.8373 67.5058 54.2846 68.8602C61.2039 65.6618 66.1131 58.7793 66.3975 50.6388C66.5815 45.3644 64.5551 40.6638 61.6916 36.6959C58.6677 32.4996 46.643 18.3582 46.643 18.3582Z" fill="#DD2C00"/>
<defs>
<linearGradient id="paint0_linear_37_2602" x1="46" y1="0" x2="46" y2="92" gradientUnits="userSpaceOnUse">
<stop stop-color="#6971A2"/>
<stop offset="1" stop-color="#272A3C" stop-opacity="0.5"/>
</linearGradient>
</defs>
</svg>
