<svg width="92" height="92" viewBox="0 0 92 92" fill="none" xmlns="http://www.w3.org/2000/svg">
<circle cx="46" cy="46" r="46" fill="url(#paint0_linear_37_2885)"/>
<g clip-path="url(#clip0_37_2885)">
<path d="M46 68C58.1504 68 68 58.1504 68 46C68 33.8496 58.1504 24 46 24C33.8496 24 24 33.8496 24 46C24 58.1504 33.8496 68 46 68Z" fill="white"/>
<path fill-rule="evenodd" clip-rule="evenodd" d="M50.0884 32.3124L34.8259 33.4362C33.5957 33.5426 33.1667 34.3446 33.1667 35.3062V51.9877C33.1667 52.7366 33.4344 53.3774 34.077 54.2336L37.6648 58.8847C38.2542 59.6336 38.7896 59.7941 39.9152 59.7409L57.639 58.6711C59.1377 58.5648 59.5667 57.8691 59.5667 56.693V37.927C59.5667 37.3183 59.3257 37.1432 58.6162 36.6253C58.5758 36.5957 58.5354 36.5661 58.4952 36.5364L53.6231 33.1145C52.4452 32.2601 51.963 32.152 50.0884 32.3124ZM40.3167 37.619C38.8693 37.7161 38.5412 37.7381 37.7189 37.0717L35.6289 35.4144C35.4162 35.1999 35.5235 34.9322 36.0579 34.8791L50.731 33.8102C51.9621 33.703 52.6047 34.1311 53.0868 34.5051L55.604 36.3228C55.7112 36.3769 55.978 36.6968 55.6572 36.6968L40.5037 37.6061L40.3167 37.619ZM38.6292 56.5326V40.6009C38.6292 39.9051 38.8427 39.5843 39.4853 39.5302L56.8882 38.5146C57.4786 38.4614 57.7462 38.8354 57.7462 39.5302V55.3556C57.7462 56.0513 57.639 56.6398 56.6737 56.693L40.0207 57.6555C39.0572 57.7086 38.6292 57.3887 38.6292 56.5326ZM55.0696 41.4552C55.1759 41.9365 55.0696 42.4177 54.5865 42.4727L53.7835 42.6313V54.394C53.0868 54.768 52.4452 54.9816 51.9098 54.9816C51.0527 54.9816 50.8373 54.7139 50.1957 53.9127L44.9468 45.6792V53.6451L46.6078 54.02C46.6078 54.02 46.6078 54.9825 45.2677 54.9825L41.5735 55.1961C41.4672 54.9816 41.5735 54.4481 41.9493 54.3408L42.9118 54.0741V43.5416L41.5735 43.4334C41.4672 42.9521 41.7339 42.2573 42.4847 42.2041L46.4474 41.9365L51.9098 50.2781V42.899L50.5165 42.7395C50.4102 42.1501 50.8373 41.7229 51.3736 41.6697L55.0696 41.4552Z" fill="black"/>
</g>
<defs>
<linearGradient id="paint0_linear_37_2885" x1="46" y1="0" x2="46" y2="92" gradientUnits="userSpaceOnUse">
<stop stop-color="#6971A2"/>
<stop offset="1" stop-color="#272A3C" stop-opacity="0.5"/>
</linearGradient>
<clipPath id="clip0_37_2885">
<rect width="44" height="44" fill="white" transform="translate(24 24)"/>
</clipPath>
</defs>
</svg>
