<svg width="92" height="92" viewBox="0 0 92 92" fill="none" xmlns="http://www.w3.org/2000/svg">
<circle cx="46" cy="46" r="46" fill="url(#paint0_linear_37_2890)"/>
<path d="M42.8677 54.7862C42.3488 54.7862 41.8232 54.6784 41.3179 54.456L30.5366 49.6516C28.6095 48.7959 27.7402 46.5251 28.596 44.5979L33.4004 33.8167C34.2562 31.8895 36.527 31.0203 38.4541 31.876L49.2354 36.6804C51.1625 37.5362 52.0317 39.807 51.176 41.7341L46.3716 52.5154C45.7314 53.9439 44.3299 54.7862 42.8677 54.7862ZM42.2141 52.4345C43.0294 52.7984 43.9862 52.4278 44.3501 51.6192L49.1545 40.8379C49.5184 40.0226 49.1478 39.0658 48.3392 38.7019L37.5512 33.8975C36.7358 33.5336 35.779 33.9042 35.4151 34.7128L30.6107 45.4941C30.2469 46.3094 30.6175 47.2663 31.4261 47.6301L42.2141 52.4345Z" fill="#089949"/>
<path d="M76.6873 54.7929H64.8818C62.7727 54.7929 61.0544 53.0747 61.0544 50.9656V39.1601C61.0544 37.051 62.7727 35.3328 64.8818 35.3328H76.6873C78.7963 35.3328 80.5146 37.051 80.5146 39.1601V50.9656C80.5146 53.0747 78.7963 54.7929 76.6873 54.7929ZM64.8818 37.5429C63.9923 37.5429 63.2646 38.2707 63.2646 39.1601V50.9656C63.2646 51.855 63.9923 52.5828 64.8818 52.5828H76.6873C77.5767 52.5828 78.3044 51.855 78.3044 50.9656V39.1601C78.3044 38.2707 77.5767 37.5429 76.6873 37.5429H64.8818Z" fill="#F9B21D"/>
<path d="M32.4775 41.3231L30.8872 44.8809C30.867 44.9213 30.8468 44.955 30.8266 44.9887L31.4465 48.816C31.588 49.6988 30.9883 50.5276 30.1123 50.6691L18.4551 52.5558C18.0306 52.6232 17.5993 52.5221 17.2489 52.2728C16.8986 52.0235 16.6694 51.6461 16.6021 51.2216L14.7153 39.5644C14.648 39.1399 14.749 38.7086 14.9984 38.3582C15.2477 38.0078 15.625 37.7787 16.0495 37.7114L27.7068 35.8246C27.7944 35.8112 27.8819 35.8044 27.9628 35.8044C28.7377 35.8044 29.4318 36.3704 29.5598 37.1656L30.1864 41.0199L31.8306 37.334L31.743 36.8152C31.4061 34.733 29.4385 33.3113 27.3564 33.6482L15.6991 35.5349C14.6951 35.6899 13.8057 36.2357 13.2127 37.0645C12.613 37.8933 12.3772 38.904 12.5389 39.9148L14.4256 51.572C14.5873 52.5827 15.1331 53.4655 15.9619 54.0652C16.6155 54.5436 17.3904 54.7862 18.1923 54.7862C18.3944 54.7862 18.6033 54.7727 18.8122 54.739L30.4694 52.8523C32.5516 52.5154 33.9734 50.5478 33.6364 48.4657L32.4775 41.3231Z" fill="#E42527"/>
<path d="M46.4594 46.8889L48.1709 43.0548L47.6857 39.4903C47.6251 39.0658 47.7396 38.6413 48.0024 38.2976C48.2652 37.954 48.6426 37.7316 49.0738 37.6777L60.7715 36.0875C60.8456 36.0807 60.9197 36.074 60.9938 36.074C61.3442 36.074 61.6811 36.1885 61.9709 36.4042C62.0248 36.4446 62.072 36.4918 62.1191 36.5322C62.638 35.9864 63.3185 35.5956 64.08 35.4271C63.8643 35.1306 63.6083 34.8678 63.3051 34.6387C62.4897 34.0188 61.4857 33.756 60.475 33.8908L48.7639 35.481C47.7531 35.6158 46.8502 36.1414 46.237 36.9567C45.6171 37.772 45.3543 38.776 45.4891 39.7868L46.4594 46.8889Z" fill="#226DB4"/>
<path d="M66.3641 48.8632L64.8278 37.5428C63.9653 37.5698 63.2712 38.2841 63.2712 39.1533V42.4753L64.1809 49.1596C64.2416 49.5842 64.127 50.0087 63.8642 50.3523C63.6014 50.696 63.2241 50.9183 62.7928 50.9722L51.0952 52.5625C50.6707 52.6231 50.2461 52.5086 49.9025 52.2458C49.5588 51.983 49.3365 51.6056 49.2826 51.1744L48.7435 47.2055L47.032 51.0396L47.0926 51.4709C47.2274 52.4816 47.753 53.3845 48.5683 53.9977C49.2421 54.5098 50.044 54.7794 50.8795 54.7794C51.0547 54.7794 51.2299 54.7659 51.4051 54.7457L63.0893 53.1689C64.1 53.0342 65.003 52.5086 65.6162 51.6932C66.2361 50.8779 66.4989 49.8739 66.3641 48.8632Z" fill="#226DB4"/>
<path d="M33.3592 60.3926L35.0303 57.9264H33.6556C33.5815 57.9264 33.5209 57.8657 33.5209 57.7916V57.4614C33.5209 57.3873 33.5815 57.3267 33.6556 57.3267H35.913C35.9871 57.3267 36.0477 57.3873 36.0477 57.4614V57.5895C36.0477 57.6164 36.041 57.6434 36.0275 57.6636L34.3901 60.1298H35.8591C35.9332 60.1298 35.9938 60.1904 35.9938 60.2645V60.5947C35.9938 60.6688 35.9332 60.7295 35.8591 60.7295H33.4737C33.3996 60.7295 33.339 60.6688 33.339 60.5947V60.4734C33.3322 60.4397 33.3457 60.4128 33.3592 60.3926Z" fill="white"/>
<path d="M40.3945 59.0052C40.3945 57.9945 41.1357 57.2667 42.1465 57.2667C43.1909 57.2667 43.8984 57.981 43.8984 59.0119C43.8984 60.0564 43.1774 60.7774 42.133 60.7774C41.0818 60.7774 40.3945 60.0564 40.3945 59.0052ZM43.0966 59.0187C43.0966 58.4055 42.8001 57.8799 42.133 57.8799C41.4592 57.8799 41.2031 58.4257 41.2031 59.0456C41.2031 59.6319 41.5198 60.1709 42.1667 60.1709C42.8338 60.1642 43.0966 59.5914 43.0966 59.0187Z" fill="white"/>
<path d="M48.6898 57.3198H49.1885C49.2626 57.3198 49.3232 57.3805 49.3232 57.4546V58.7079H50.7383V57.4546C50.7383 57.3805 50.7989 57.3198 50.873 57.3198H51.3717C51.4458 57.3198 51.5064 57.3805 51.5064 57.4546V60.5879C51.5064 60.662 51.4458 60.7227 51.3717 60.7227H50.8798C50.8056 60.7227 50.745 60.662 50.745 60.5879V59.3211H49.33V60.5879C49.33 60.662 49.2693 60.7227 49.1952 60.7227H48.6966C48.6224 60.7227 48.5618 60.662 48.5618 60.5879V57.4546C48.5551 57.3805 48.6157 57.3198 48.6898 57.3198Z" fill="white"/>
<path d="M56.1621 59.0052C56.1621 57.9945 56.9033 57.2667 57.9141 57.2667C58.9585 57.2667 59.666 57.981 59.666 59.0119C59.666 60.0564 58.945 60.7774 57.9006 60.7774C56.8494 60.7774 56.1621 60.0564 56.1621 59.0052ZM58.8574 59.0187C58.8574 58.4055 58.5609 57.8799 57.8938 57.8799C57.22 57.8799 56.964 58.4257 56.964 59.0456C56.964 59.6319 57.2807 60.1709 57.9275 60.1709C58.5946 60.1642 58.8574 59.5914 58.8574 59.0187Z" fill="white"/>
<defs>
<linearGradient id="paint0_linear_37_2890" x1="46" y1="0" x2="46" y2="92" gradientUnits="userSpaceOnUse">
<stop stop-color="#6971A2"/>
<stop offset="1" stop-color="#272A3C" stop-opacity="0.5"/>
</linearGradient>
</defs>
</svg>
