<svg width="92" height="92" viewBox="0 0 92 92" fill="none" xmlns="http://www.w3.org/2000/svg">
<circle cx="46" cy="46" r="46" fill="url(#paint0_linear_37_2908)"/>
<g clip-path="url(#clip0_37_2908)">
<path d="M46 68C58.1503 68 68 58.1503 68 46C68 33.8497 58.1503 24 46 24C33.8497 24 24 33.8497 24 46C24 58.1503 33.8497 68 46 68Z" fill="#827DDC"/>
<path d="M54.3857 40.4084L51.848 37.8707C51.4102 37.433 50.8157 37.1518 50.1558 37.1186L46.9119 33.8746L32.0029 36.4904V55.1657L44.8045 67.9673C45.2004 67.9886 45.5988 68 45.9999 68C57.174 68 66.4016 59.6691 67.8122 48.8798L58.5373 39.6049C58.5373 39.6049 58.5372 39.6047 58.537 39.6045C58.0753 39.1429 57.4376 38.8575 56.7332 38.8575C55.6792 38.8575 54.7747 39.4967 54.3857 40.4084Z" fill="#6E64C3"/>
<path d="M32.0029 55.1659L46.9119 57.7815V33.8748L32.0029 36.4904V55.1659Z" fill="#302C89"/>
<path d="M47.9857 53.8204C48.543 54.2708 49.252 54.5409 50.0243 54.5409C51.8173 54.5409 53.2708 53.0874 53.2708 51.2944V43.4885H47.9856L47.9857 53.8204Z" fill="#302C89"/>
<path d="M50.0242 42.2742C51.4488 42.2742 52.6037 41.1194 52.6037 39.6947C52.6037 38.2701 51.4489 37.1152 50.0242 37.1152C49.1948 37.1152 48.4574 37.5071 47.9856 38.1153V41.2742C48.4575 41.8824 49.1948 42.2742 50.0242 42.2742Z" fill="#302C89"/>
<path d="M59.9443 45.161H54.3384V52.0561C54.9277 52.7496 55.8058 53.1895 56.7861 53.1895C57.6438 53.1895 58.4657 52.8464 59.0688 52.2367C59.6719 51.6269 60.006 50.8013 59.9966 49.9438L59.9443 45.161Z" fill="#302C89"/>
<path d="M56.7334 43.9597C58.1425 43.9597 59.2848 42.8174 59.2848 41.4084C59.2848 39.9993 58.1425 38.8571 56.7334 38.8571C55.3244 38.8571 54.1821 39.9993 54.1821 41.4084C54.1821 42.8174 55.3244 43.9597 56.7334 43.9597Z" fill="#302C89"/>
<path d="M42.3978 43.1552H40.1737V49.6532H38.8315V43.1552H36.6074V41.8203H42.3977L42.3978 43.1552Z" fill="white"/>
</g>
<defs>
<linearGradient id="paint0_linear_37_2908" x1="46" y1="0" x2="46" y2="92" gradientUnits="userSpaceOnUse">
<stop stop-color="#6971A2"/>
<stop offset="1" stop-color="#272A3C" stop-opacity="0.5"/>
</linearGradient>
<clipPath id="clip0_37_2908">
<rect width="44" height="44" fill="white" transform="translate(24 24)"/>
</clipPath>
</defs>
</svg>
