<svg width="92" height="92" viewBox="0 0 92 92" fill="none" xmlns="http://www.w3.org/2000/svg">
<circle cx="46" cy="46" r="46" fill="url(#paint0_linear_37_2920)"/>
<path d="M38.3441 46L26.3201 53.8288V38.1712L38.3441 46ZM53.6561 46L65.6801 53.8288V38.1712L53.6561 46ZM51.8993 47.1472L46.5233 50.6464C46.3649 50.7472 46.1825 50.8 46.0001 50.8C45.8177 50.8 45.6353 50.7472 45.4769 50.6464L40.1009 47.1472L27.1169 55.6L26.3633 56.0896C26.5985 57.4432 27.7793 58.48 29.2001 58.48H62.8001C64.2209 58.48 65.4017 57.448 65.6369 56.0896L64.8785 55.6L51.8993 47.1472ZM46.0001 48.6928L64.8785 36.4L65.6369 35.9104C65.4017 34.552 64.2209 33.52 62.8001 33.52H29.2001C27.7793 33.52 26.5985 34.5568 26.3633 35.9104L27.1169 36.4L46.0001 48.6928Z" fill="white"/>
<defs>
<linearGradient id="paint0_linear_37_2920" x1="46" y1="0" x2="46" y2="92" gradientUnits="userSpaceOnUse">
<stop stop-color="#6971A2"/>
<stop offset="1" stop-color="#272A3C" stop-opacity="0.5"/>
</linearGradient>
</defs>
</svg>
