<svg width="92" height="92" viewBox="0 0 92 92" fill="none" xmlns="http://www.w3.org/2000/svg">
<circle cx="46" cy="46" r="46" fill="url(#paint0_linear_37_2610)"/>
<g clip-path="url(#clip0_37_2610)">
<path d="M31.2348 66.5884C30.8272 66.5884 30.4643 66.5632 30.1572 66.5158V67.8697C30.7881 68.121 31.3102 68.2466 31.7373 68.2466C33.3369 68.2466 34.8109 67.2695 36.1565 65.307C37.8762 62.7666 39.2664 58.6879 40.3217 53.0823H37.865C37.472 56.3455 36.6894 59.5499 35.534 62.627C35.6121 62.0435 35.4195 61.019 34.9617 59.5506L32.9321 53.0823H30.3917L33.2225 61.7337C33.6496 63.0318 33.8646 63.8972 33.8646 64.3215C33.8646 64.9329 33.591 65.4857 33.041 65.9798C32.5832 66.3818 31.983 66.5884 31.2348 66.5884Z" fill="#105E86"/>
<path d="M67.3875 49.1096V64.2656H74.7295V62.4007H69.8581V49.1096H67.3875Z" fill="#DE8A03"/>
<path d="M15.9033 52.1777H15.9312L19.8396 64.2656H21.8077L25.744 52.1777H25.7663C26.1958 56.1939 26.4473 60.2271 26.52 64.2656H29.1163C28.9565 59.1976 28.5578 54.14 27.9215 49.1096H24.8646L21.1042 60.2484H21.0819L17.355 49.1096H14.1446C13.5114 54.1394 13.1294 59.1977 13 64.2656H15.359C15.4343 59.8324 15.6158 55.804 15.9033 52.1777Z" fill="#105E86"/>
<path d="M65.1455 56.4043C65.1455 51.3904 63.1411 48.8779 59.1295 48.8779C57.1642 48.8779 55.6287 49.5144 54.5232 50.7874C53.3228 52.1805 52.7198 54.2296 52.7198 56.9403C52.7198 59.6035 53.2502 61.5605 54.3222 62.8056C55.2993 63.9306 56.7705 64.4917 58.7414 64.4917C59.4784 64.4917 60.154 64.4024 60.7654 64.2237L64.4644 66.3398L65.4694 64.6369H65.461L62.6246 63.2662C62.8759 63.0568 63.1188 62.8335 63.3365 62.5822C64.5453 61.192 65.1455 59.1317 65.1455 56.4043ZM58.9955 62.6157C57.7532 62.6157 56.8459 62.1579 56.2652 61.245L56.2708 61.2311C55.6427 60.2456 55.33 58.6543 55.33 56.4741C55.33 52.6551 56.5137 50.7456 58.8754 50.7456C60.1122 50.7456 61.025 51.2034 61.6029 52.1163C62.2282 53.1073 62.5409 54.6818 62.5409 56.8398C62.5409 60.6867 61.3572 62.6157 58.9955 62.6157ZM49.85 56.8733C49.85 56.8733 47.6334 55.6254 46.5363 55.0363C45.3303 54.3775 44.677 53.6042 44.677 52.7081C44.6793 52.4322 44.7425 52.1603 44.8622 51.9117C44.9819 51.6631 45.1551 51.4441 45.3694 51.2704C45.7937 50.8907 46.4051 50.7065 47.1951 50.7065C48.1694 50.7065 49.1604 50.9186 50.1654 51.3374L50.7601 50.0337C49.5945 49.2867 48.236 48.8966 46.8517 48.9114C45.4559 48.9114 44.3253 49.2855 43.4459 50.0476C42.5721 50.8014 42.1338 51.7868 42.1338 53.0208C42.1338 54.5031 42.7201 55.4048 43.8982 56.2479C43.8982 56.2479 46.0617 57.4651 47.1449 58.0486C48.3118 58.6934 48.9539 59.4611 48.9539 60.3656C48.9585 60.6931 48.885 61.0169 48.7393 61.3101C48.5936 61.6034 48.3801 61.8577 48.1164 62.0518C47.5859 62.4538 46.8573 62.6548 45.9305 62.6548C44.9339 62.6548 43.8312 62.3589 42.6084 61.7559L41.9468 63.0596C43.3677 64.0004 44.8222 64.4722 46.3381 64.4722C47.96 64.4722 49.2414 64.0618 50.2017 63.2383C51.1621 62.4175 51.6422 61.3595 51.6422 60.0697L51.659 60.0781C51.659 58.6013 51.0588 57.7108 49.85 56.8733Z" fill="#DE8A03"/>
<path d="M58.7971 28.1023C58.4761 28.1023 58.2584 28.1413 58.0322 28.1916V28.2279H58.0713C58.2221 28.5126 58.4789 28.722 58.6687 28.9761C58.8195 29.2692 58.9479 29.5623 59.0986 29.8526L59.1377 29.8108C59.4001 29.6293 59.5286 29.339 59.5286 28.8979C59.4169 28.7695 59.4001 28.6411 59.3052 28.5154C59.1936 28.3312 58.9535 28.2418 58.8027 28.0967L58.7971 28.1023Z" fill="#105E86"/>
<path d="M79.1486 48.85C78.5982 48.1393 77.9441 47.5154 77.2084 46.9991C76.611 46.5999 75.3045 46.0388 75.0588 45.3688L75.0225 45.3297C75.4301 45.2934 75.9158 45.1482 76.3067 45.0394C76.9404 44.8746 77.521 44.9109 78.1771 44.749C78.473 44.6764 78.7717 44.5843 79.0704 44.4922V44.3275C78.7354 43.9981 78.4842 43.5514 78.138 43.2443C77.1703 42.4141 76.1399 41.66 75.056 40.9886C74.4698 40.6201 73.7272 40.3856 73.1102 40.073C72.8869 39.9641 72.5128 39.9083 72.3844 39.724C72.0494 39.3248 71.854 38.7916 71.6167 38.3142C71.0807 37.3064 70.5558 36.1898 70.0896 35.1261C69.7546 34.4087 69.5508 33.694 69.1405 33.0352C67.2142 29.9197 65.1288 28.0297 61.9212 26.1844C61.2317 25.802 60.4053 25.6373 59.5315 25.4335C59.0653 25.4111 58.5991 25.3776 58.1357 25.3581C57.8286 25.2297 57.5327 24.8807 57.2703 24.7132C56.2095 24.0544 53.4625 22.6306 52.6808 24.515C52.1783 25.7043 53.4262 26.8768 53.8589 27.4798C54.1799 27.8985 54.5847 28.3787 54.808 28.8505C54.9393 29.1687 54.9755 29.4954 55.1068 29.8276C55.4027 30.6344 55.6846 31.5305 56.0755 32.287C56.2793 32.6695 56.5026 33.0743 56.765 33.4176C56.9158 33.6186 57.1726 33.7108 57.2312 34.0402C56.9688 34.4143 56.952 34.9559 56.8013 35.4109C56.1313 37.4851 56.3937 40.0506 57.3429 41.5777C57.6416 42.0327 58.3535 43.0405 59.3054 42.6553C60.1429 42.3259 59.9587 41.2846 60.1988 40.3661C60.2546 40.1456 60.2183 40.0004 60.3328 39.8524V39.8943C60.5952 40.4108 60.8576 40.8993 61.0977 41.4158C61.6728 42.3147 62.6778 43.2471 63.518 43.8696C63.9647 44.1991 64.3193 44.7686 64.8776 44.9724V44.9165H64.8357C64.7157 44.7574 64.5565 44.682 64.4058 44.5508C64.0521 44.211 63.7254 43.8442 63.4287 43.4537C62.6431 42.3998 61.9457 41.2831 61.3433 40.1149C61.0363 39.5398 60.7794 38.92 60.5338 38.3533C60.4221 38.1356 60.4221 37.8061 60.235 37.6945C59.9559 38.0937 59.5455 38.4426 59.3417 38.9368C58.9872 39.7268 58.9509 40.6955 58.8169 41.7061C58.7415 41.7256 58.7778 41.7061 58.7415 41.7452C58.1441 41.6028 57.9403 40.9942 57.717 40.4834C57.1586 39.1824 57.0665 37.0915 57.5495 35.5896C57.6807 35.2071 58.239 33.9955 58.0157 33.627C57.8984 33.2781 57.5299 33.0799 57.3261 32.7979C57.0647 32.4311 56.8403 32.0393 56.6561 31.6282C56.2095 30.6036 55.9861 29.4674 55.5004 28.4429C55.277 27.9683 54.8862 27.4714 54.568 27.0359C54.2134 26.5418 53.8226 26.1956 53.5406 25.6094C53.4485 25.4084 53.3173 25.0761 53.4653 24.8584C53.5043 24.7104 53.5825 24.6518 53.7277 24.6127C53.9733 24.4145 54.6629 24.6741 54.9058 24.783C55.5953 25.0566 56.176 25.3134 56.7538 25.6987C57.0163 25.8801 57.2982 26.2263 57.6332 26.3184H58.024C58.6215 26.4469 59.2943 26.3575 59.8526 26.5194C60.8436 26.8321 61.737 27.2871 62.5382 27.7813C64.9973 29.319 67.0056 31.4804 68.3588 34.0458C68.5821 34.4673 68.6798 34.8554 68.8836 35.2936C69.2745 36.1981 69.7574 37.111 70.1538 37.9848C70.5447 38.8474 70.9215 39.7296 71.4827 40.4443C71.7618 40.8267 72.8841 41.0277 73.3866 41.2287C73.7579 41.3934 74.3358 41.5442 74.6708 41.7452C75.3128 42.1276 75.9382 42.5687 76.5412 42.9903C76.8483 43.1996 77.7779 43.6575 77.8337 44.026C76.3402 43.9869 75.1816 44.1349 74.2129 44.5424C73.9338 44.6513 73.4871 44.6513 73.448 45.0003C73.6015 45.1454 73.6239 45.3827 73.7551 45.5865C73.9784 45.9522 74.3637 46.4436 74.721 46.7032C75.1118 47.0047 75.5027 47.295 75.913 47.5519C76.6389 47.9901 77.4624 48.2498 78.1743 48.6909C78.5791 48.9477 78.9923 49.2743 79.4026 49.5479C79.6064 49.6847 79.7376 49.9331 80 50.0197V49.9666C79.8716 49.8019 79.8325 49.5646 79.7069 49.3804C79.5199 49.1961 79.3328 49.0314 79.1486 48.85Z" fill="#105E86"/>
</g>
<defs>
<linearGradient id="paint0_linear_37_2610" x1="46" y1="0" x2="46" y2="92" gradientUnits="userSpaceOnUse">
<stop stop-color="#6971A2"/>
<stop offset="1" stop-color="#272A3C" stop-opacity="0.5"/>
</linearGradient>
<clipPath id="clip0_37_2610">
<rect width="67" height="67" fill="white" transform="translate(13 12)"/>
</clipPath>
</defs>
</svg>
