<svg width="92" height="92" viewBox="0 0 92 92" fill="none" xmlns="http://www.w3.org/2000/svg">
<circle cx="46" cy="46" r="46" fill="url(#paint0_linear_37_2619)"/>
<path d="M71.8545 54.8633C71.7077 54.8633 71.562 54.8248 71.4334 54.7499L70.0924 53.9564C69.892 53.8446 69.9897 53.8046 70.056 53.7818C70.3232 53.6887 70.3773 53.667 70.6622 53.506C70.6921 53.4893 70.731 53.4954 70.7619 53.5136L71.7917 54.1255C71.8292 54.1462 71.8823 54.1462 71.9162 54.1255L75.9327 51.8072C75.9707 51.786 75.9945 51.743 75.9945 51.6984V47.063C75.9945 47.0174 75.9707 46.9754 75.9322 46.9522L71.9172 44.636C71.8798 44.6147 71.8307 44.6147 71.7932 44.636L67.7787 46.9527C67.7403 46.9754 67.7155 47.019 67.7155 47.063V51.6984C67.7155 51.743 67.7403 51.785 67.7787 51.8057L68.8789 52.4418C69.476 52.7399 69.8419 52.3887 69.8419 52.0355V47.4582C69.8419 47.3939 69.894 47.3428 69.9583 47.3428H70.4679C70.5311 47.3428 70.5838 47.3939 70.5838 47.4582V52.0355C70.5838 52.832 70.1501 53.2889 69.3946 53.2889C69.1623 53.2889 68.9796 53.2889 68.4695 53.0379L67.4164 52.4317C67.1558 52.2809 66.9954 51.9995 66.9954 51.6989V47.0635C66.9954 46.7624 67.1558 46.4815 67.4164 46.3317L71.4329 44.0105C71.687 43.8673 72.0245 43.8673 72.2765 44.0105L76.2931 46.3317C76.5532 46.482 76.7146 46.7629 76.7146 47.0635V51.6989C76.7146 52 76.5532 52.2799 76.2931 52.4317L72.2765 54.7504C72.149 54.8248 72.0038 54.8633 71.8545 54.8633ZM73.0958 51.6696C71.3373 51.6696 70.9694 50.8624 70.9694 50.1858C70.9694 50.1221 71.0215 50.07 71.0858 50.07H71.605C71.6632 50.07 71.7113 50.1114 71.7204 50.1681C71.7983 50.697 72.0326 50.9636 73.0958 50.9636C73.9414 50.9636 74.3017 50.7724 74.3017 50.323C74.3017 50.0639 74.1995 49.8721 72.8848 49.743C71.7856 49.6342 71.106 49.3918 71.106 48.5118C71.106 47.7016 71.7892 47.2178 72.9339 47.2178C74.2208 47.2178 74.8574 47.6647 74.9378 48.6231C74.9409 48.6555 74.9292 48.6874 74.9075 48.7122C74.8852 48.735 74.8549 48.7492 74.8225 48.7492H74.3007C74.2466 48.7492 74.199 48.7112 74.1879 48.6586C74.0624 48.1019 73.7587 47.9243 72.9334 47.9243C72.0098 47.9243 71.9025 48.2466 71.9025 48.487C71.9025 48.779 72.0291 48.864 73.2765 49.029C74.5107 49.1925 75.0973 49.4232 75.0973 50.2911C75.0978 51.1681 74.368 51.6696 73.0958 51.6696Z" fill="#83CD29"/>
<path d="M63.5839 48.6291C63.7423 48.5365 63.8399 48.3674 63.8399 48.1837V46.9925C63.8399 46.8093 63.7428 46.6403 63.5839 46.5477L59.3513 44.0903C59.1918 43.9977 58.9955 43.9972 58.8356 44.0893L54.5767 46.5482C54.4178 46.6403 54.3196 46.8098 54.3196 46.9935V51.9103C54.3196 52.095 54.4188 52.2661 54.5797 52.3577L58.8118 54.769C58.9677 54.8586 59.159 54.8591 59.3163 54.772L61.8759 53.349C61.9574 53.3035 62.008 53.2184 62.0085 53.1263C62.009 53.0332 61.9594 52.9472 61.879 52.9012L57.5937 50.4417C57.5133 50.3957 57.4642 50.3107 57.4642 50.2191V48.6776C57.4642 48.5855 57.5133 48.501 57.5927 48.4555L58.9272 47.6863C59.0061 47.6402 59.1043 47.6402 59.1838 47.6863L60.5182 48.4555C60.5982 48.5015 60.6473 48.586 60.6473 48.6776V49.8901C60.6473 49.9827 60.6963 50.0678 60.7758 50.1133C60.8557 50.1594 60.9539 50.1594 61.0339 50.1128L63.5839 48.6291Z" fill="white"/>
<path d="M59.0304 48.3984C59.0613 48.3812 59.0987 48.3812 59.1291 48.3984L59.9464 48.8705C59.9767 48.8883 59.9955 48.9212 59.9955 48.9561V49.8999C59.9955 49.9353 59.9767 49.9677 59.9464 49.9854L59.1291 50.457C59.0987 50.4747 59.0608 50.4747 59.0304 50.457L58.2137 49.9854C58.1828 49.9677 58.1641 49.9353 58.1641 49.8999V48.9561C58.1641 48.9212 58.1828 48.8883 58.2137 48.8705L59.0304 48.3984Z" fill="#83CD29"/>
<path d="M47.9475 50.3619C47.9475 50.4074 47.9232 50.4499 47.8833 50.4732L46.4208 51.3163C46.3808 51.3396 46.3317 51.3396 46.2922 51.3163L44.8297 50.4732C44.7898 50.4499 44.7655 50.4074 44.7655 50.3619V48.6727C44.7655 48.6271 44.7903 48.5841 44.8297 48.5608L46.2922 47.7167C46.3322 47.693 46.3813 47.693 46.4213 47.7167L47.8843 48.5608C47.9237 48.5841 47.948 48.6271 47.948 48.6727L47.9475 50.3619ZM48.3428 37.8543C48.2633 37.8103 48.1661 37.8113 48.0872 37.8573C48.0088 37.9039 47.9602 37.9879 47.9602 38.079V44.6146C47.9602 44.6784 47.9258 44.7381 47.8706 44.7705C47.8149 44.8024 47.7461 44.8024 47.6905 44.7705L46.6237 44.1557C46.4648 44.0641 46.269 44.0641 46.1101 44.1557L41.8501 46.6141C41.6907 46.7062 41.5925 46.8762 41.5925 47.0599V51.9782C41.5925 52.1619 41.6907 52.3314 41.8496 52.424L46.1095 54.884C46.2684 54.9761 46.4648 54.9761 46.6242 54.884L50.8852 52.424C51.0441 52.3314 51.1422 52.1619 51.1422 51.9782V39.7181C51.1422 39.5319 51.041 39.3598 50.8786 39.2687L48.3428 37.8543Z" fill="white"/>
<path d="M33.3502 44.063C33.5091 43.9709 33.7055 43.9709 33.8644 44.063L38.1243 46.5209C38.2832 46.613 38.3814 46.783 38.3814 46.9667V51.8865C38.3814 52.0702 38.2832 52.2403 38.1243 52.3324L33.8649 54.7923C33.706 54.8839 33.5096 54.8839 33.3502 54.7923L29.0918 52.3324C28.9329 52.2403 28.8347 52.0702 28.8347 51.8865V46.9662C28.8347 46.783 28.9329 46.613 29.0918 46.5209L33.3502 44.063Z" fill="#83CD29"/>
<path d="M25.6038 46.9259C25.6038 46.7407 25.5066 46.5706 25.3467 46.4791L21.0883 44.0282C21.0154 43.9857 20.9349 43.964 20.8535 43.9609H20.8094C20.7285 43.964 20.6475 43.9857 20.5746 44.0282L16.3157 46.4791C16.1573 46.5706 16.0581 46.7407 16.0581 46.9259L16.0672 53.5248C16.0672 53.6169 16.1153 53.7024 16.1958 53.747C16.2747 53.7945 16.3724 53.7945 16.4513 53.747L18.9816 52.2976C19.1415 52.2025 19.2391 52.035 19.2391 51.8513V48.7684C19.2391 48.5842 19.3363 48.4147 19.4957 48.3226L20.5736 47.7022C20.6536 47.6551 20.7416 47.6328 20.8307 47.6328C20.9187 47.6328 21.0088 47.6551 21.0873 47.7022L22.1641 48.3226C22.3235 48.4147 22.4217 48.5842 22.4217 48.7684V51.8513C22.4217 52.035 22.5204 52.2035 22.6793 52.2976L25.2095 53.747C25.289 53.7945 25.3882 53.7945 25.4666 53.747C25.5451 53.7019 25.5941 53.6164 25.5941 53.5248L25.6038 46.9259Z" fill="white"/>
<defs>
<linearGradient id="paint0_linear_37_2619" x1="46" y1="0" x2="46" y2="92" gradientUnits="userSpaceOnUse">
<stop stop-color="#6971A2"/>
<stop offset="1" stop-color="#272A3C" stop-opacity="0.5"/>
</linearGradient>
</defs>
</svg>
