<svg width="92" height="92" viewBox="0 0 92 92" fill="none" xmlns="http://www.w3.org/2000/svg">
<circle cx="46" cy="46" r="46" fill="url(#paint0_linear_37_2628)"/>
<g clip-path="url(#clip0_37_2628)">
<path d="M58.199 39.0056H70.5659V41.2882H65.6601V53.2968H63.207V41.2882H58.199V39.0056Z" fill="white"/>
<path d="M37.8598 39.0056V41.2882H27.9469V44.9603H35.9189V47.2429H27.9469V51.0142H37.8598V53.2968H25.4939V41.2882H25.4929V39.0056H37.8598Z" fill="white"/>
<path d="M44.0348 39.0117H40.8247L52.3227 53.3029H55.5422L49.7925 46.1622L55.5331 39.0226L52.3227 39.0276L48.1853 44.1662L44.0348 39.0117Z" fill="white"/>
<path d="M47.3291 49.22L45.7215 47.2212L40.8157 53.3138H44.035L47.3291 49.22Z" fill="white"/>
<path fill-rule="evenodd" clip-rule="evenodd" d="M25.5797 53.2969L14.0662 38.9998H11V53.2909H13.4529V42.0545L22.4982 53.2969H25.5797Z" fill="white"/>
<path d="M71.1173 53.2095C70.9376 53.2095 70.7848 53.1473 70.6569 53.0228C70.5289 52.8983 70.4657 52.7476 70.4673 52.5691C70.4657 52.3955 70.5289 52.2465 70.6569 52.122C70.7848 51.9975 70.9376 51.9353 71.1173 51.9353C71.2901 51.9353 71.4413 51.9975 71.5693 52.122C71.699 52.2465 71.7637 52.3955 71.7655 52.5691C71.7637 52.687 71.7338 52.7951 71.674 52.8917C71.6125 52.99 71.5345 53.067 71.4363 53.1227C71.3399 53.18 71.2335 53.2095 71.1173 53.2095Z" fill="white"/>
<path d="M75.3041 47.189H76.3911V51.3768C76.3895 51.7616 76.3062 52.0908 76.1435 52.3676C75.979 52.6444 75.7512 52.8556 75.4587 53.0047C75.1679 53.1521 74.8271 53.2274 74.4399 53.2274C74.0858 53.2274 73.7684 53.1636 73.4859 53.0391C73.2033 52.9146 72.979 52.7279 72.8144 52.4822C72.6481 52.2366 72.5667 51.9303 72.5667 51.5635H73.6554C73.6571 51.724 73.6936 51.8632 73.7634 51.9794C73.8331 52.0957 73.9295 52.1842 74.0526 52.2464C74.1771 52.3086 74.3202 52.3398 74.4813 52.3398C74.6559 52.3398 74.8055 52.3037 74.9268 52.23C75.048 52.158 75.1412 52.0499 75.2061 51.9057C75.2692 51.7633 75.3025 51.5864 75.3041 51.3768V47.189Z" fill="white"/>
<path d="M80.863 48.8267C80.8365 48.5728 80.7201 48.3746 80.5173 48.2338C80.3128 48.0913 80.0486 48.0209 79.7244 48.0209C79.4968 48.0209 79.3008 48.0553 79.1379 48.1224C78.975 48.1912 78.8487 48.2829 78.7622 48.3992C78.6758 48.5155 78.6326 48.6482 78.6292 48.7972C78.6292 48.9217 78.6591 49.0298 78.7173 49.1198C78.7755 49.2115 78.8535 49.2885 78.955 49.3508C79.0546 49.4146 79.166 49.467 79.2875 49.5096C79.4104 49.5522 79.5334 49.5882 79.6563 49.6177L80.2231 49.7569C80.4508 49.8093 80.672 49.8798 80.883 49.9698C81.094 50.0583 81.2852 50.1713 81.453 50.3072C81.6209 50.4432 81.7539 50.6069 81.8519 50.7986C81.95 50.9902 81.9999 51.2145 81.9999 51.4733C81.9999 51.8221 81.9101 52.1284 81.7288 52.3937C81.5477 52.6574 81.2868 52.8638 80.9444 53.0128C80.6037 53.1602 80.1915 53.2355 79.7062 53.2355C79.2375 53.2355 78.8287 53.1635 78.4847 53.0194C78.139 52.8769 77.8696 52.6672 77.6752 52.3921C77.4807 52.117 77.376 51.7812 77.3611 51.3865H78.4382C78.4531 51.5929 78.5196 51.7648 78.6326 51.904C78.7472 52.0416 78.8968 52.1432 79.0797 52.2119C79.2642 52.2791 79.4702 52.3135 79.698 52.3135C79.9356 52.3135 80.145 52.2774 80.3261 52.207C80.5056 52.1366 80.6469 52.0383 80.7484 51.9106C80.8514 51.7845 80.903 51.6355 80.9046 51.4651C80.903 51.3095 80.8563 51.1801 80.7666 51.0786C80.6752 50.9771 80.5489 50.8919 80.3876 50.8231C80.2249 50.7543 80.0353 50.6921 79.8192 50.638L79.1312 50.4644C78.6342 50.3383 78.2403 50.1467 77.9527 49.8896C77.6636 49.6325 77.5206 49.2918 77.5206 48.8643C77.5206 48.5139 77.617 48.206 77.8116 47.9423C78.0042 47.6786 78.2686 47.4739 78.6027 47.3281C78.9384 47.1807 79.3174 47.1086 79.7394 47.1086C80.1683 47.1086 80.5438 47.1807 80.868 47.3281C81.192 47.4739 81.4465 47.677 81.6308 47.9357C81.8153 48.1945 81.9118 48.4909 81.9168 48.8267H80.863Z" fill="white"/>
</g>
<defs>
<linearGradient id="paint0_linear_37_2628" x1="46" y1="0" x2="46" y2="92" gradientUnits="userSpaceOnUse">
<stop stop-color="#6971A2"/>
<stop offset="1" stop-color="#272A3C" stop-opacity="0.5"/>
</linearGradient>
<clipPath id="clip0_37_2628">
<rect width="71" height="14.236" fill="white" transform="translate(11 39)"/>
</clipPath>
</defs>
</svg>
