<svg width="92" height="92" viewBox="0 0 92 92" fill="none" xmlns="http://www.w3.org/2000/svg">
<circle cx="46" cy="46" r="46" fill="url(#paint0_linear_37_2639)"/>
<g clip-path="url(#clip0_37_2639)">
<path d="M45.8854 21.0142C33.1732 21.0142 33.9669 26.5269 33.9669 26.5269L33.9811 32.2383H46.112V33.953H29.1628C29.1628 33.953 21.0283 33.0304 21.0283 45.8569C21.0283 58.6838 28.1283 58.2289 28.1283 58.2289H32.3656V52.2767C32.3656 52.2767 32.1371 45.1767 39.3522 45.1767H51.384C51.384 45.1767 58.1438 45.2859 58.1438 38.6436V27.6608C58.1438 27.6608 59.1705 21.0142 45.8854 21.0142ZM39.1964 24.8549C39.483 24.8547 39.7669 24.911 40.0318 25.0205C40.2967 25.1301 40.5374 25.2909 40.7401 25.4936C40.9428 25.6963 41.1035 25.937 41.2131 26.2018C41.3227 26.4667 41.379 26.7506 41.3787 27.0373C41.379 27.324 41.3227 27.6079 41.2131 27.8728C41.1035 28.1376 40.9428 28.3783 40.7401 28.581C40.5374 28.7837 40.2967 28.9445 40.0318 29.0541C39.7669 29.1636 39.483 29.2199 39.1964 29.2197C38.9097 29.2199 38.6258 29.1636 38.3609 29.0541C38.096 28.9445 37.8553 28.7837 37.6526 28.581C37.4499 28.3783 37.2892 28.1376 37.1796 27.8728C37.07 27.6079 37.0137 27.324 37.014 27.0373C37.0137 26.7506 37.07 26.4667 37.1796 26.2018C37.2892 25.937 37.4499 25.6963 37.6526 25.4936C37.8553 25.2909 38.096 25.1301 38.3609 25.0205C38.6258 24.911 38.9097 24.8547 39.1964 24.8549Z" fill="url(#paint1_linear_37_2639)"/>
<path d="M46.2465 70.8285C58.9587 70.8285 58.1649 65.3158 58.1649 65.3158L58.1508 59.6046H46.0196V57.8899H62.9689C62.9689 57.8899 71.1034 58.8124 71.1034 45.9856C71.1034 33.1589 64.0034 33.6138 64.0034 33.6138H59.7661V39.5658C59.7661 39.5658 59.9945 46.6658 52.7794 46.6658H40.7477C40.7477 46.6658 33.9879 46.5566 33.9879 53.1991V64.182C33.9879 64.182 32.9614 70.8285 46.2463 70.8285H46.2465ZM52.9355 66.9881C52.6489 66.9884 52.365 66.9321 52.1001 66.8225C51.8352 66.713 51.5945 66.5522 51.3918 66.3495C51.1891 66.1468 51.0283 65.9061 50.9188 65.6412C50.8092 65.3763 50.7529 65.0924 50.7532 64.8058C50.7529 64.5191 50.8091 64.2352 50.9187 63.9703C51.0283 63.7053 51.189 63.4646 51.3917 63.2619C51.5944 63.0592 51.8351 62.8984 52.1 62.7888C52.3649 62.6792 52.6488 62.623 52.9355 62.6232C53.2222 62.623 53.5061 62.6792 53.771 62.7888C54.0359 62.8984 54.2765 63.0591 54.4792 63.2618C54.682 63.4645 54.8427 63.7052 54.9523 63.9701C55.0619 64.235 55.1181 64.5189 55.1179 64.8056C55.1181 65.0922 55.0619 65.3761 54.9523 65.641C54.8427 65.9059 54.682 66.1466 54.4792 66.3493C54.2765 66.552 54.0359 66.7128 53.771 66.8223C53.5061 66.9319 53.2222 66.9884 52.9355 66.9881Z" fill="url(#paint2_linear_37_2639)"/>
</g>
<defs>
<linearGradient id="paint0_linear_37_2639" x1="46" y1="0" x2="46" y2="92" gradientUnits="userSpaceOnUse">
<stop stop-color="#6971A2"/>
<stop offset="1" stop-color="#272A3C" stop-opacity="0.5"/>
</linearGradient>
<linearGradient id="paint1_linear_37_2639" x1="502.246" y1="469.066" x2="2983.81" y2="2925.87" gradientUnits="userSpaceOnUse">
<stop stop-color="#387EB8"/>
<stop offset="1" stop-color="#366994"/>
</linearGradient>
<linearGradient id="paint2_linear_37_2639" x1="744.266" y1="799.494" x2="3409.18" y2="3318.72" gradientUnits="userSpaceOnUse">
<stop stop-color="#FFE052"/>
<stop offset="1" stop-color="#FFC331"/>
</linearGradient>
<clipPath id="clip0_37_2639">
<rect width="50.2008" height="50" fill="white" transform="translate(21 21)"/>
</clipPath>
</defs>
</svg>
