<svg width="92" height="92" viewBox="0 0 92 92" fill="none" xmlns="http://www.w3.org/2000/svg">
<circle cx="46" cy="46" r="46" fill="url(#paint0_linear_37_2644)"/>
<g clip-path="url(#clip0_37_2644)">
<path fill-rule="evenodd" clip-rule="evenodd" d="M26.5985 60.743V57.0999C26.5985 56.6212 26.8977 56.2367 27.3933 56.2367H27.5305C28.0259 56.2367 28.3238 56.6216 28.3238 57.0999V64.7698C28.3238 66.6401 27.3998 68.1283 25.7896 69.0764C25.0519 69.5134 24.2099 69.743 23.3526 69.741H23.0104C21.1396 69.741 19.6534 68.8163 18.7037 67.2072C18.2661 66.4697 18.0365 65.6273 18.0393 64.7698V64.428C18.0393 62.557 18.9638 61.0697 20.5727 60.1198C21.3102 59.6819 22.1527 59.4522 23.0104 59.4552H23.3526C24.6186 59.4552 25.6927 59.9459 26.5985 60.743ZM19.7645 64.5985C19.7645 65.9496 20.4193 66.9654 21.6032 67.6133C22.0819 67.8751 22.6016 68.0159 23.1477 68.0159C24.4739 68.0159 25.4576 67.3902 26.136 66.2664C26.4515 65.7437 26.5985 65.1716 26.5985 64.5636C26.5985 63.3924 26.044 62.4784 25.1002 61.7995C24.528 61.3881 23.8838 61.1816 23.1814 61.1816C21.7359 61.1816 20.6956 61.912 20.0713 63.2092C19.8607 63.6478 19.7645 64.1134 19.7645 64.5985ZM34.3093 59.4552H34.5484C36.5474 59.4552 38.0677 60.4248 39.0311 62.1698C39.4163 62.8678 39.6225 63.6298 39.6225 64.428V64.7698C39.6225 66.6401 38.7003 68.1303 37.0876 69.0766C36.341 69.5146 35.5163 69.741 34.651 69.741H34.3093C32.4385 69.741 30.9518 68.8163 30.0027 67.2072C29.5648 66.4697 29.335 65.6274 29.3376 64.7698V64.428C29.3376 62.5568 30.2658 61.0743 31.8707 60.1202C32.6169 59.6769 33.4422 59.4552 34.3093 59.4552ZM31.0629 64.5985C31.0629 65.91 31.7064 66.8747 32.8141 67.5532C33.3343 67.8716 33.9072 68.0159 34.5148 68.0159C35.8106 68.0159 36.7685 67.3588 37.4351 66.2651C37.7531 65.7437 37.8969 65.1708 37.8969 64.5636C37.8969 63.3441 37.3096 62.4125 36.3054 61.7374C35.7552 61.3671 35.1427 61.1816 34.48 61.1816C33.0346 61.1816 31.9943 61.912 31.3702 63.2092C31.1591 63.6478 31.0629 64.1134 31.0629 64.5985ZM46.7949 61.3195C46.5344 61.1975 46.0468 61.1569 45.7654 61.1462C44.3239 61.0919 43.281 61.9037 42.6691 63.1753C42.4578 63.6139 42.3614 64.0782 42.3614 64.5636C42.3614 66.0413 43.1374 67.076 44.4564 67.7068C44.9382 67.937 45.5603 67.9807 46.0869 67.9807C46.55 67.9807 47.2046 67.697 47.6156 67.5017L47.6869 67.4679H48.006L48.0411 67.475C48.4335 67.5567 48.7296 67.8055 48.7296 68.2276V68.3984C48.7296 69.4489 46.8099 69.6893 46.0773 69.7406C43.4923 69.9193 41.559 68.4997 40.822 66.034C40.6939 65.6058 40.6363 65.1806 40.6363 64.7344V64.393C40.6363 62.522 41.5647 61.04 43.1694 60.0868C43.9156 59.6438 44.7407 59.4211 45.6075 59.4211H45.9495C46.8691 59.4211 47.7161 59.6823 48.4753 60.2008L48.5377 60.244L48.5771 60.3091C48.659 60.4449 48.7296 60.6021 48.7296 60.7637V60.9345C48.7296 61.3749 48.4001 61.6118 48.0024 61.6884L47.9694 61.6942H47.8675C47.6101 61.6942 47.0247 61.4277 46.7949 61.3195ZM52.3912 62.4878C53.0614 61.8167 53.7338 61.1469 54.414 60.487C54.6035 60.3028 55.3211 59.5235 55.6037 59.5235H55.9127L55.9479 59.5309C56.3415 59.6126 56.6363 59.8617 56.6363 60.2848V60.4553C56.6363 60.7439 56.2984 61.0792 56.112 61.2767C55.7157 61.6969 55.2984 62.1032 54.8927 62.5147L52.8082 64.6308C53.7057 65.5303 54.6024 66.4305 55.4926 67.337C55.7395 67.5872 55.9845 67.8392 56.2275 68.0931C56.3133 68.1833 56.4397 68.2955 56.5117 68.4204C56.5889 68.5375 56.6363 68.6696 56.6363 68.8105V68.9886L56.6263 69.0298C56.5295 69.4235 56.2796 69.741 55.8435 69.741H55.7061C55.4206 69.741 55.0982 69.4182 54.9027 69.2336C54.4997 68.8537 54.1108 68.4543 53.7158 68.0662L52.3912 66.7659V68.8441C52.3912 69.3229 52.0915 69.7076 51.5965 69.7076H51.4607C50.9651 69.7076 50.6658 69.3229 50.6658 68.8441V57.1333C50.6658 56.6546 50.9653 56.2716 51.4607 56.2716H51.5965C52.0915 56.2716 52.3912 56.6546 52.3912 57.1333V62.4878ZM73.8947 59.5235H74.0661C74.5835 59.5235 74.9289 59.8722 74.9289 60.3868C74.9289 61.101 74.246 61.2838 73.6553 61.2838C72.8805 61.2838 72.1406 61.753 71.6064 62.2791C70.9404 62.9357 70.649 63.7767 70.649 64.7012V68.878C70.649 69.3567 70.35 69.741 69.8541 69.741H69.7178C69.222 69.741 68.9232 69.3569 68.9232 68.878V64.4614C68.9232 62.7654 69.7488 61.3809 71.1253 60.4099C71.9471 59.8299 72.8885 59.5235 73.8947 59.5235ZM61.6321 67.801C62.26 68.0203 62.9758 67.9889 63.62 67.8767C63.9495 67.7366 64.792 67.369 65.102 67.4229L65.1503 67.4312L65.1948 67.453C65.3841 67.5447 65.5646 67.6745 65.6613 67.8671C65.887 68.3185 65.7786 68.7722 65.3351 69.0285L65.1875 69.1138C63.5509 70.0583 61.8102 69.9274 60.1788 69.0452C59.3988 68.6235 58.8021 67.9976 58.3619 67.2346L58.2591 67.0562C57.2083 65.2367 57.3502 63.3227 58.5352 61.5924C58.9442 60.9944 59.4788 60.5324 60.1038 60.171L60.3402 60.0345C61.8815 59.1448 63.5333 59.2058 65.1162 59.9867C65.9674 60.4066 66.657 61.0325 67.1321 61.8556L67.2176 62.0039C67.5628 62.602 67.1157 63.123 66.6541 63.4792C66.1184 63.8925 65.5776 64.3899 65.0641 64.833C63.9192 65.8214 62.7761 66.812 61.6321 67.801ZM60.1503 66.7603C61.4306 65.6626 62.7113 64.5638 63.9882 63.4614C64.4246 63.0851 64.9031 62.6946 65.336 62.2989C64.9886 61.8612 64.4084 61.5457 63.9154 61.3575C62.9202 60.9784 61.9389 61.1057 61.0262 61.6325C59.8317 62.3223 59.3229 63.4207 59.3674 64.7876C59.3853 65.326 59.53 65.8447 59.8157 66.3027C59.9163 66.4642 60.0287 66.6158 60.1503 66.7603ZM50.8393 32.1869H55.9305V37.3915H58.5047C59.6936 37.3915 60.9162 37.1798 62.042 36.7983C62.5953 36.6106 63.2161 36.3497 63.7618 36.0213C63.0431 35.083 62.6761 33.8982 62.5684 32.7304C62.4214 31.1418 62.742 29.0742 63.817 27.8309L64.3523 27.2119L64.99 27.7247C66.5955 29.0145 67.9459 30.8171 68.184 32.872C70.1173 32.3034 72.3873 32.4378 74.0913 33.4213L74.7904 33.8248L74.4226 34.5431C72.9813 37.3557 69.9681 38.2271 67.0224 38.0728C62.6144 49.0518 53.0177 54.2495 41.3819 54.2495C35.3702 54.2495 29.855 52.0022 26.7142 46.6687L26.6628 46.5819L26.2052 45.6507C25.1436 43.303 24.7909 40.7311 25.0301 38.1612L25.102 37.3915H29.4558V32.1869H34.5468V27.0957H44.7296V22.0044H50.8393V32.1869Z" fill="white"/>
<path fill-rule="evenodd" clip-rule="evenodd" d="M67.3341 34.1125C67.6754 31.4593 65.69 29.3755 64.4587 28.386C63.0397 30.0265 62.8193 34.326 65.0454 36.1362C63.803 37.2397 61.1852 38.2399 58.5046 38.2399H25.8755C25.615 41.038 26.1062 43.6148 27.2281 45.8202L27.5993 46.4993C27.8343 46.8979 28.0911 47.2832 28.3686 47.6535C29.7101 47.7397 30.9469 47.7693 32.0785 47.7444H32.0789C34.3026 47.6954 36.117 47.4327 37.4921 46.9562C37.5893 46.9259 37.6945 46.9347 37.7854 46.9806C37.8763 47.0265 37.9457 47.106 37.9791 47.2022C38.0124 47.2984 38.007 47.4037 37.9641 47.496C37.9211 47.5884 37.8439 47.6603 37.7489 47.6967C37.5658 47.7604 37.3752 47.8196 37.1784 47.876H37.1777C36.095 48.1852 34.9338 48.3932 33.4358 48.4856C33.5248 48.4872 33.3432 48.499 33.3427 48.499C33.2917 48.5023 33.2276 48.5097 33.1764 48.5123C32.5868 48.5455 31.9504 48.5524 31.2998 48.5524C30.5882 48.5524 29.8875 48.5391 29.104 48.499L29.084 48.5123C31.8026 51.5681 36.0535 53.4007 41.3822 53.4007C52.6593 53.4007 62.2246 48.4017 66.4604 37.1787C69.4653 37.4871 72.3534 36.7207 73.6671 34.1561C71.5746 32.9487 68.8835 33.3336 67.3341 34.1125Z" fill="#22A0C8"/>
<path fill-rule="evenodd" clip-rule="evenodd" d="M67.3339 34.1125C67.6753 31.4593 65.6898 29.3755 64.4585 28.386C63.0396 30.0265 62.8191 34.326 65.0452 36.1362C63.8028 37.2397 61.1851 38.2399 58.5045 38.2399H27.8075C27.6744 42.5251 29.2646 45.7779 32.0781 47.7444H32.0788C34.3024 47.6954 36.1169 47.4327 37.492 46.9562C37.5892 46.9259 37.6944 46.9347 37.7852 46.9806C37.8761 47.0265 37.9456 47.106 37.9789 47.2022C38.0123 47.2984 38.0069 47.4037 37.9639 47.496C37.921 47.5884 37.8438 47.6603 37.7487 47.6967C37.5657 47.7604 37.3751 47.8196 37.1783 47.876H37.1776C36.0948 48.1852 34.8339 48.4199 33.3359 48.5123C33.3354 48.5123 33.2996 48.4778 33.2991 48.4778C37.1371 50.4465 42.7019 50.4394 49.0821 47.9886C56.2361 45.2402 62.8933 40.0042 67.5381 34.0154C67.4682 34.047 67.4001 34.0793 67.3339 34.1125Z" fill="#37B1D9"/>
<path fill-rule="evenodd" clip-rule="evenodd" d="M25.9365 41.6396C26.1391 43.1386 26.5778 44.542 27.2279 45.8202L27.5991 46.4993C27.8341 46.898 28.0909 47.2833 28.3684 47.6536C29.7101 47.7398 30.947 47.7694 32.0787 47.7444C34.3024 47.6955 36.1168 47.4327 37.4919 46.9562C37.5892 46.926 37.6943 46.9348 37.7852 46.9807C37.8761 47.0266 37.9455 47.106 37.9789 47.2022C38.0122 47.2984 38.0068 47.4038 37.9639 47.4961C37.9209 47.5884 37.8437 47.6604 37.7487 47.6968C37.5656 47.7605 37.375 47.8197 37.1782 47.876H37.1775C36.0948 48.1853 34.8405 48.4066 33.3425 48.4992C33.2911 48.5024 33.2014 48.503 33.1495 48.5059C32.5603 48.5389 31.9304 48.5591 31.2796 48.5591C30.5682 48.5591 29.8406 48.5456 29.0575 48.5057C31.7761 51.5614 36.0534 53.4008 41.382 53.4008C51.0363 53.4008 59.4358 49.7363 64.3109 41.6396H25.9365Z" fill="#1B81A5"/>
<path fill-rule="evenodd" clip-rule="evenodd" d="M28.1013 41.6396C28.6784 44.2714 30.0654 46.3375 32.0788 47.7444C34.3025 47.6955 36.1169 47.4327 37.4921 46.9562C37.5893 46.926 37.6944 46.9348 37.7853 46.9807C37.8762 47.0266 37.9457 47.106 37.979 47.2022C38.0123 47.2984 38.007 47.4038 37.964 47.4961C37.921 47.5884 37.8439 47.6604 37.7488 47.6968C37.5658 47.7605 37.3752 47.8197 37.1783 47.876H37.1777C36.0949 48.1853 34.8142 48.4066 33.3159 48.4992C37.1536 50.4675 42.7024 50.4392 49.0822 47.9887C52.9417 46.5058 56.6563 44.2984 59.9888 41.6396H28.1013Z" fill="#1D91B4"/>
<path fill-rule="evenodd" clip-rule="evenodd" d="M30.304 33.0356H34.7166V37.4482H30.304V33.0356ZM30.6716 33.4034H31.0198V37.0806H30.6716V33.4034ZM31.3262 33.4034H31.6884V37.0806H31.3264L31.3262 33.4034ZM31.9946 33.4034H32.3568V37.0806H31.9946V33.4034ZM32.6634 33.4034H33.0255V37.0806H32.6634V33.4034ZM33.3321 33.4034H33.6941V37.0806H33.3321V33.4034ZM34.0005 33.4034H34.349V37.0806H34.0005V33.4034ZM35.3952 27.9443H39.808V32.3567H35.395L35.3952 27.9443ZM35.763 28.3122H36.1111V31.9891H35.763V28.3122ZM36.4177 28.3122H36.7797V31.9891H36.4179L36.4177 28.3122ZM37.0861 28.3122H37.4481V31.9891H37.0861V28.3122ZM37.7547 28.3122H38.1167V31.9891H37.7547V28.3122ZM38.4233 28.3122H38.7856V31.9891H38.4233V28.3122ZM39.0918 28.3122H39.4404V31.9891H39.0918V28.3122Z" fill="#23A3C2"/>
<path fill-rule="evenodd" clip-rule="evenodd" d="M35.3952 33.0356H39.8081V37.4482H35.395L35.3952 33.0356ZM35.7631 33.4035H36.1111V37.0806H35.7631V33.4035ZM36.4177 33.4035H36.7797V37.0806H36.4179L36.4177 33.4035ZM37.0861 33.4035H37.4481V37.0806H37.0861V33.4035ZM37.7547 33.4035H38.1168V37.0806H37.7547V33.4035ZM38.4234 33.4035H38.7856V37.0806H38.4234V33.4035ZM39.0918 33.4035H39.4405V37.0806H39.0918V33.4035Z" fill="#34BBDE"/>
<path fill-rule="evenodd" clip-rule="evenodd" d="M40.4868 33.0356H44.8994V37.4482H40.4868V33.0356ZM40.8544 33.4035H41.2024V37.0806H40.8544V33.4035ZM41.509 33.4035H41.8711V37.0806H41.509V33.4035ZM42.1777 33.4035H42.5397V37.0806H42.1777V33.4035ZM42.8463 33.4035H43.2083V37.0806H42.8463V33.4035ZM43.5147 33.4035H43.8772V37.0806H43.5147V33.4035ZM44.1834 33.4035H44.5316V37.0806H44.1834V33.4035Z" fill="#23A3C2"/>
<path fill-rule="evenodd" clip-rule="evenodd" d="M40.4868 27.9443H44.8994V32.3567H40.4868V27.9443ZM40.8544 28.3122H41.2024V31.9891H40.8544V28.3122ZM41.509 28.3122H41.8711V31.9891H41.509V28.3122ZM42.1777 28.3122H42.5397V31.9891H42.1777V28.3122ZM42.8463 28.3122H43.2083V31.9891H42.8463V28.3122ZM43.5147 28.3122H43.8772V31.9891H43.5147V28.3122ZM44.1834 28.3122H44.5316V31.9891H44.1834V28.3122ZM45.5781 33.0356H49.9907V37.4482H45.5781V33.0356ZM45.9459 33.4034H46.2939V37.0806H45.9459V33.4034ZM46.6005 33.4034H46.9626V37.0806H46.6005V33.4034ZM47.2689 33.4034H47.631V37.0806H47.2689V33.4034ZM47.9376 33.4034H48.2998V37.0806H47.9376V33.4034ZM48.6062 33.4034H48.9685V37.0806H48.6062V33.4034ZM49.2748 33.4034H49.6231V37.0806H49.2748V33.4034Z" fill="#34BBDE"/>
<path fill-rule="evenodd" clip-rule="evenodd" d="M45.5779 27.9443H49.9905V32.3567H45.5779V27.9443ZM45.9457 28.3122H46.2937V31.9891H45.9457V28.3122ZM46.6003 28.3122H46.9624V31.9891H46.6003V28.3122ZM47.2687 28.3122H47.6308V31.9891H47.2687V28.3122ZM47.9374 28.3122H48.2996V31.9891H47.9374V28.3122ZM48.606 28.3122H48.9683V31.9891H48.606V28.3122ZM49.2746 28.3122H49.6229V31.9891H49.2746V28.3122Z" fill="#23A3C2"/>
<path fill-rule="evenodd" clip-rule="evenodd" d="M45.5779 22.8528H49.9905V27.2658H45.5779V22.8528ZM45.9457 23.2204H46.2937V26.8978H45.9457V23.2204ZM46.6003 23.2204H46.9624V26.8978H46.6003V23.2204ZM47.2687 23.2204H47.6308V26.8978H47.2687V23.2204ZM47.9374 23.2204H48.2996V26.8978H47.9374V23.2204ZM48.606 23.2204H48.9683V26.8978H48.606V23.2204ZM49.2746 23.2204H49.6229V26.8978H49.2746V23.2204Z" fill="#34BBDE"/>
<path fill-rule="evenodd" clip-rule="evenodd" d="M50.6692 33.0356H55.0818V37.4482H50.6692V33.0356ZM51.0366 33.4035H51.385V37.0806H51.0368V33.4035H51.0366ZM51.6912 33.4035H52.0534V37.0806H51.6914L51.6912 33.4035ZM52.36 33.4035H52.7223V37.0806H52.36V33.4035ZM53.0285 33.4035H53.3907V37.0806H53.0285V33.4035ZM53.6973 33.4035H54.0594V37.0806H53.6973V33.4035ZM54.3657 33.4035H54.714V37.0806H54.3657V33.4035Z" fill="#23A3C2"/>
<path fill-rule="evenodd" clip-rule="evenodd" d="M39.5318 44.6024C39.6931 44.6003 39.8531 44.6302 40.0027 44.6904C40.1523 44.7506 40.2885 44.84 40.4033 44.9532C40.518 45.0665 40.6092 45.2015 40.6714 45.3503C40.7336 45.4991 40.7656 45.6587 40.7655 45.82C40.7655 45.9813 40.7334 46.1409 40.6712 46.2897C40.6089 46.4385 40.5178 46.5734 40.4029 46.6866C40.2881 46.7999 40.1519 46.8892 40.0023 46.9493C39.8527 47.0095 39.6926 47.0394 39.5314 47.0372C39.2114 47.0328 38.9059 46.9025 38.6812 46.6747C38.4565 46.4468 38.3305 46.1396 38.3306 45.8196C38.3306 45.4995 38.4567 45.1924 38.6815 44.9646C38.9063 44.7368 39.2118 44.6067 39.5318 44.6024Z" fill="#D3ECEC"/>
<path fill-rule="evenodd" clip-rule="evenodd" d="M39.5317 44.9476C39.6431 44.9476 39.7493 44.9685 39.8473 45.0066C39.7796 45.0458 39.7269 45.1062 39.697 45.1785C39.6672 45.2507 39.662 45.3308 39.6822 45.4063C39.7024 45.4818 39.7469 45.5486 39.8089 45.5962C39.8708 45.6439 39.9468 45.6699 40.0249 45.6701C40.1596 45.6701 40.2765 45.5955 40.3371 45.485C40.4088 45.6578 40.423 45.849 40.3777 46.0305C40.3324 46.2119 40.2299 46.374 40.0855 46.4927C39.941 46.6115 39.7621 46.6806 39.5753 46.6899C39.3885 46.6992 39.2037 46.6481 39.0481 46.5443C38.8925 46.4405 38.7745 46.2894 38.7114 46.1133C38.6483 45.9372 38.6435 45.7456 38.6977 45.5666C38.752 45.3876 38.8623 45.2308 39.0125 45.1193C39.1627 45.0078 39.3447 44.9476 39.5317 44.9476ZM18 42.0795H74.6275C73.3946 41.7669 70.7266 41.3443 71.1665 39.7283C68.9244 42.3227 63.5176 41.5485 62.153 40.2693C60.6335 42.4732 51.7874 41.6353 51.1704 39.9184C49.2654 42.1541 43.3626 42.1541 41.4575 39.9184C40.8401 41.6353 31.9942 42.4732 30.4745 40.2691C29.1101 41.5485 23.7036 42.3227 21.4614 39.7285C21.9014 41.3443 19.2333 41.7667 18 42.0795Z" fill="#364548"/>
<path fill-rule="evenodd" clip-rule="evenodd" d="M42.7675 53.3745C39.7527 51.9439 38.0981 49.999 37.1774 47.8762C36.0575 48.1957 34.7115 48.4001 33.1474 48.4879C32.5582 48.5208 31.9383 48.5377 31.2882 48.5377C30.5383 48.5377 29.7481 48.5155 28.9185 48.4716C31.6832 51.2348 35.0843 53.362 41.3819 53.4008C41.8468 53.4008 42.3081 53.3919 42.7675 53.3745Z" fill="#BDD9D7"/>
<path fill-rule="evenodd" clip-rule="evenodd" d="M38.2973 49.8351C37.8802 49.2689 37.4757 48.5573 37.1782 47.8757C36.0582 48.1957 34.7118 48.4001 33.1475 48.488C34.222 49.0712 35.7583 49.6116 38.2973 49.8351Z" fill="#D3ECEC"/>
</g>
<defs>
<linearGradient id="paint0_linear_37_2644" x1="46" y1="0" x2="46" y2="92" gradientUnits="userSpaceOnUse">
<stop stop-color="#6971A2"/>
<stop offset="1" stop-color="#272A3C" stop-opacity="0.5"/>
</linearGradient>
<clipPath id="clip0_37_2644">
<rect width="57" height="47.88" fill="white" transform="translate(18 22)"/>
</clipPath>
</defs>
</svg>
