<svg width="92" height="92" viewBox="0 0 92 92" fill="none" xmlns="http://www.w3.org/2000/svg">
<circle cx="46" cy="46" r="46" fill="url(#paint0_linear_37_2664)"/>
<g clip-path="url(#clip0_37_2664)">
<path d="M45.8775 49.448L43.4705 41.8523H46.0793L47.5083 47.3663L46.732 47.3827L48.41 41.8523H50.8334L52.526 47.3827L51.7497 47.3663L53.195 41.8523H55.8039L53.3968 49.448H50.9589L49.3427 44.2139H49.9481L48.2864 49.448H45.8793H45.8775Z" fill="white"/>
<path d="M59.6706 49.6042C58.9561 49.6042 58.3271 49.4333 57.7835 49.0915C57.2399 48.7497 56.8109 48.2807 56.4945 47.6862C56.1782 47.0917 56.02 46.4099 56.02 45.6446C56.02 44.8792 56.1782 44.2138 56.4945 43.6175C56.8109 43.023 57.2417 42.5539 57.7908 42.2121C58.3398 41.8704 58.9616 41.6995 59.6542 41.6995C60.1415 41.6995 60.5814 41.7849 60.9741 41.9558C61.3668 42.1267 61.6904 42.3649 61.9449 42.6703C62.1995 42.9757 62.3522 43.3302 62.4031 43.7338V47.5553C62.3413 47.9589 62.1831 48.317 61.9286 48.6261C61.6741 48.937 61.3504 49.177 60.9578 49.3479C60.5632 49.5188 60.1342 49.6042 59.6688 49.6042H59.6706ZM60.2451 47.1972C60.6905 47.1972 61.0468 47.0517 61.3159 46.7626C61.585 46.4736 61.7195 46.1009 61.7195 45.6446C61.7195 45.3555 61.6577 45.0937 61.5323 44.861C61.4086 44.6283 61.2377 44.4447 61.0196 44.3101C60.8014 44.1756 60.5487 44.1083 60.2578 44.1083C59.9669 44.1083 59.7106 44.1756 59.4888 44.3101C59.2652 44.4447 59.0907 44.6283 58.9598 44.861C58.8307 45.0937 58.7652 45.3555 58.7652 45.6446C58.7652 45.9336 58.827 46.2118 58.9507 46.4445C59.0743 46.6772 59.2506 46.8608 59.4779 46.9954C59.7051 47.1299 59.9597 47.1972 60.2396 47.1972H60.2451ZM61.6268 49.4497V47.399L62.0158 45.5664L61.6268 43.7175V41.854H64.2993V49.4497H61.6268Z" fill="white"/>
<path d="M65.23 44.1048V41.8523H71.2876V44.1048H65.23ZM66.8916 49.4479V38.7144H69.6096V49.4479H66.8916Z" fill="white"/>
<path d="M73.5874 40.9831C73.1729 40.9831 72.8311 40.8413 72.562 40.5558C72.293 40.2704 72.1584 39.9268 72.1584 39.5232C72.1584 39.1196 72.293 38.7778 72.562 38.4978C72.8311 38.2179 73.1729 38.0779 73.5874 38.0779C74.0019 38.0779 74.3273 38.2179 74.5964 38.4978C74.8655 38.7778 75 39.1196 75 39.5232C75 39.9268 74.8655 40.2722 74.5964 40.5558C74.3273 40.8413 73.991 40.9831 73.5874 40.9831ZM72.2057 49.4478V41.8521H74.9237V49.4478H72.2057Z" fill="white"/>
<path d="M23.6468 51.6947H30.3971L34.4313 55.7253V51.6947H36.1547C38.2109 51.6947 39.8926 50.013 39.8926 47.9569V42.6482C39.8926 40.5921 38.2109 38.9104 36.1547 38.9104H23.6468C21.5906 38.9104 19.9089 40.5921 19.9089 42.6482V47.9569C19.9089 50.013 21.5906 51.6947 23.6468 51.6947Z" fill="#00E785"/>
<path d="M32.2532 54.5747L27.9154 50.2405H21.4651C19.0035 50.2405 17 48.2371 17 45.7755V40.4651C17 38.0035 19.0035 36 21.4651 36H33.973C36.4346 36 38.4381 38.0035 38.4381 40.4651V45.7737C38.4381 48.2353 36.4346 50.2387 33.973 50.2387H32.2495V48.7843H33.973C35.6329 48.7843 36.9837 47.4335 36.9837 45.7737V40.4651C36.9837 38.8052 35.6329 37.4544 33.973 37.4544H21.4651C19.8052 37.4544 18.4544 38.8052 18.4544 40.4651V45.7737C18.4544 47.4335 19.8052 48.7843 21.4651 48.7843H28.5171L32.2659 52.5294L32.2532 54.5729V54.5747Z" fill="white"/>
</g>
<defs>
<linearGradient id="paint0_linear_37_2664" x1="46" y1="0" x2="46" y2="92" gradientUnits="userSpaceOnUse">
<stop stop-color="#6971A2"/>
<stop offset="1" stop-color="#272A3C" stop-opacity="0.5"/>
</linearGradient>
<clipPath id="clip0_37_2664">
<rect width="58.0002" height="19.7255" fill="white" transform="translate(17 36)"/>
</clipPath>
</defs>
</svg>
