<svg width="92" height="92" viewBox="0 0 92 92" fill="none" xmlns="http://www.w3.org/2000/svg">
<circle cx="46" cy="46" r="46" fill="url(#paint0_linear_37_2676)"/>
<g clip-path="url(#clip0_37_2676)">
<path d="M36.8915 46.5642V52.0586C36.8915 52.2369 36.7464 52.382 36.5681 52.382H34.1941C34.015 52.382 33.8706 52.2369 33.8706 52.0586V43.3822C33.8706 43.2039 34.0157 43.0588 34.1941 43.0588H36.5681C36.7464 43.0588 36.8915 43.2039 36.8915 43.3822V44.0657C37.4879 43.32 38.327 42.8535 39.5019 42.8535C40.6022 42.8535 41.5531 43.3014 42.1309 44.1404C42.8393 43.3014 43.8463 42.8535 45.0772 42.8535C47.1658 42.8535 48.6012 44.0844 48.6012 46.4335V52.0586C48.6012 52.2369 48.4561 52.382 48.2778 52.382H45.9038C45.7248 52.382 45.5803 52.2369 45.5803 52.0586V47.068C45.5803 46.0424 45.0025 45.5392 44.2188 45.5392C43.5664 45.5392 43.0439 45.9498 42.7453 46.5649V52.0593C42.7453 52.2376 42.6002 52.3827 42.4219 52.3827H40.0479C39.8689 52.3827 39.7244 52.2376 39.7244 52.0593V47.0687C39.7244 46.0431 39.1466 45.5399 38.3629 45.5399C37.6918 45.5399 37.188 45.9504 36.8894 46.5655" fill="white"/>
<path d="M52.5716 52.569C50.8189 52.569 49.3455 51.4128 49.3455 49.6228C49.3455 47.982 50.4271 47.217 52.441 46.6952L55.0148 46.0241C54.9401 45.409 54.4549 45.1104 53.6719 45.1104C52.978 45.1104 52.479 45.3758 52.2489 45.9066C52.1846 46.0545 52.0305 46.1416 51.8729 46.1043L49.8334 45.6191C49.6454 45.5742 49.5355 45.3737 49.6026 45.1927C50.1879 43.6086 51.8148 42.7786 53.7832 42.7786C56.4309 42.7786 57.9603 44.0281 57.9603 46.228V52.0583C57.9603 52.2373 57.8152 52.3817 57.6369 52.3817H55.3859C55.2103 52.3817 55.0666 52.2414 55.0624 52.0659L55.0514 51.58L55.0327 51.5987C54.2683 52.2511 53.5226 52.5683 52.5709 52.5683M53.3353 50.2372C53.7272 50.2372 54.0251 50.1252 54.4729 49.864L54.9947 49.5467L55.0134 48.0359L53.6705 48.4092C52.7568 48.6704 52.3463 48.8943 52.3463 49.4161C52.3463 49.9939 52.8495 50.2365 53.3346 50.2365" fill="white"/>
<path d="M62.7836 47.9818L61.87 48.8208V52.0587C61.87 52.2377 61.7248 52.3822 61.5465 52.3822H59.2285C59.0495 52.3822 58.905 52.237 58.905 52.0587V40.3234C58.905 40.1451 59.0502 40 59.2285 40H61.5465C61.7248 40 61.87 40.1451 61.87 40.3234V45.632L64.5743 43.1439C64.6338 43.0893 64.7125 43.0582 64.7934 43.0582H67.6554C67.9512 43.0582 68.0915 43.4218 67.8737 43.6208L65.0968 46.1538L68.2635 51.9025C68.3824 52.1182 68.2262 52.3822 67.9802 52.3822H65.2744C65.1542 52.3822 65.0429 52.3151 64.9876 52.208L62.7843 47.9811L62.7836 47.9818Z" fill="white"/>
<path d="M72.6201 52.5876C70.0284 52.5876 67.6599 50.9656 67.6599 47.6834C67.6599 44.5879 69.9351 42.7979 72.4335 42.7979C74.9319 42.7979 76.9092 44.6065 76.9832 47.4595C76.9915 47.7608 76.9963 47.9709 76.9991 48.1202C77.0018 48.3013 76.856 48.4478 76.6756 48.4478H70.6435C70.7368 49.5667 71.6318 50.2751 72.7694 50.2751C73.5787 50.2751 74.2422 49.9385 74.7073 49.3304C74.8103 49.1956 75.0003 49.1645 75.1413 49.2592L76.648 50.2682C76.7987 50.3691 76.836 50.5737 76.7344 50.7237C75.9271 51.9117 74.596 52.5876 72.6208 52.5876M70.7002 46.6205H73.9637C73.945 45.5575 73.162 45.0917 72.3416 45.0917C71.5772 45.0917 70.7942 45.5395 70.7009 46.6205" fill="white"/>
<mask id="mask0_37_2676" style="mask-type:luminance" maskUnits="userSpaceOnUse" x="26" y="43" width="4" height="10">
<path d="M26.7839 43.0645H29.1254C29.3037 43.0645 29.4489 43.2096 29.4489 43.3879V52.0318C29.4489 52.2101 29.3037 52.3552 29.1254 52.3552H26.7839C26.6056 52.3552 26.4604 52.2101 26.4604 52.0318V43.3879C26.4604 43.2096 26.6056 43.0645 26.7839 43.0645Z" fill="white"/>
</mask>
<g mask="url(#mask0_37_2676)">
<path d="M29.0925 42.094L23.4458 44.176L26.8192 53.325L32.4659 51.2429L29.0925 42.094Z" fill="url(#paint1_linear_37_2676)"/>
</g>
<mask id="mask1_37_2676" style="mask-type:luminance" maskUnits="userSpaceOnUse" x="16" y="43" width="7" height="10">
<path d="M19.9159 43.1783L16.0345 50.9016C15.9543 51.0613 16.0186 51.2555 16.1783 51.3356L18.2703 52.3868C18.4299 52.467 18.6241 52.4027 18.7043 52.2431L22.5857 44.5198C22.6658 44.3601 22.6016 44.1659 22.4419 44.0858L20.3499 43.0346C20.3029 43.0111 20.2538 43 20.2047 43C20.0866 43 19.9725 43.065 19.9159 43.1783Z" fill="white"/>
</mask>
<g mask="url(#mask1_37_2676)">
<path d="M21.6096 40.5561L12.5056 44.4919L17.0111 54.9135L26.1151 50.9776L21.6096 40.5561Z" fill="url(#paint2_linear_37_2676)"/>
</g>
<mask id="mask2_37_2676" style="mask-type:luminance" maskUnits="userSpaceOnUse" x="21" y="42" width="6" height="11">
<path d="M23.1809 43.2059L21.5201 51.6244C21.4856 51.7993 21.5989 51.9686 21.7738 52.0039L24.069 52.4669C24.2445 52.5022 24.4159 52.3881 24.4505 52.2126L26.1113 43.794C26.1458 43.6192 26.0325 43.4498 25.8576 43.4146L23.5624 42.9515C23.541 42.9474 23.5195 42.9453 23.4981 42.9453C23.3468 42.9453 23.2113 43.0517 23.1809 43.2059Z" fill="white"/>
</mask>
<g mask="url(#mask2_37_2676)">
<path d="M25.5894 41.4355L18.387 44.0869L22.0419 54.0153L29.2443 51.3639L25.5894 41.4355Z" fill="url(#paint3_linear_37_2676)"/>
</g>
</g>
<defs>
<linearGradient id="paint0_linear_37_2676" x1="46" y1="0" x2="46" y2="92" gradientUnits="userSpaceOnUse">
<stop stop-color="#6971A2"/>
<stop offset="1" stop-color="#272A3C" stop-opacity="0.5"/>
</linearGradient>
<linearGradient id="paint1_linear_37_2676" x1="23.4994" y1="49.2059" x2="29.8185" y2="46.8759" gradientUnits="userSpaceOnUse">
<stop stop-color="#B02DE9"/>
<stop offset="0.02" stop-color="#B02DE9"/>
<stop offset="0.8" stop-color="#6D00CC"/>
<stop offset="1" stop-color="#6D00CC"/>
</linearGradient>
<linearGradient id="paint2_linear_37_2676" x1="18.0008" y1="48.2105" x2="24.7937" y2="45.2738" gradientUnits="userSpaceOnUse">
<stop stop-color="#FF00FF"/>
<stop offset="0.17" stop-color="#E90CF9"/>
<stop offset="0.54" stop-color="#C023ED"/>
<stop offset="0.73" stop-color="#B02DE9"/>
<stop offset="1" stop-color="#B02DE9"/>
</linearGradient>
<linearGradient id="paint3_linear_37_2676" x1="16.4851" y1="50.4945" x2="30.41" y2="45.3684" gradientUnits="userSpaceOnUse">
<stop stop-color="#FF00FF"/>
<stop offset="0.02" stop-color="#FF00FF"/>
<stop offset="0.09" stop-color="#E90CF9"/>
<stop offset="0.23" stop-color="#C023ED"/>
<stop offset="0.3" stop-color="#B02DE9"/>
<stop offset="0.42" stop-color="#A42BE3"/>
<stop offset="0.63" stop-color="#8626D5"/>
<stop offset="0.85" stop-color="#6021C3"/>
<stop offset="1" stop-color="#6021C3"/>
</linearGradient>
<clipPath id="clip0_37_2676">
<rect width="61" height="12.5874" fill="white" transform="translate(16 40)"/>
</clipPath>
</defs>
</svg>
